<svg class="icon-elbow-light" version="1.1" viewBox="8.4731 6.3339 3.493 4.0022" xmlns="http://www.w3.org/2000/svg"><path d="m8.4767 6.4955v2.4921c0 0.087681-0.00111 0.23022 0.010619 0.31705 0.071245 0.52732 0.49293 0.9494 1.0202 1.0208 0.086872 0.01176 0.22945 0.01064 0.31713 0.01064h1.9828a0.16738 0.16738 136.51 0 0 0.16715-0.15854 0.13241 0.13241 37.431 0 0-0.15258-0.11679h-1.9827c-0.087681 0-0.23082-9.05e-4 -0.31543-0.02304-0.28054-0.073396-0.67877-0.32209-0.75993-0.74534-0.016472-0.085894-0.014775-0.22875-0.014775-0.31643v-2.4921a0.15209 0.15209 43.771 0 0-0.15861-0.15195 0.14406 0.14406 124.81 0 0-0.11379 0.16364z"/></svg>
