<svg version="1.1" viewBox="8.4731 6.3339 3.493 4.0022" xmlns="http://www.w3.org/2000/svg" class="icon-elbow" ><path d="m8.4767 6.6065v2.1429c0 0.2192-6e-3 0.58046 0.066136 0.78635 0.11972 0.3417 0.39193 0.61414 0.73351 0.734 0.2059 0.07225 0.56721 0.06624 0.78642 0.06624h1.6351a0.27136 0.27136 135.33 0 0 0.27135-0.26826 0.25073 0.25073 41.872 0 0-0.26554-0.23802h-1.7637c-0.14816 0-0.3917-0.02192-0.50952-0.10817-0.11998-0.08783-0.24523-0.21635-0.33261-0.33628-0.087937-0.12071-0.11487-0.36752-0.11487-0.51892v-2.2603a0.27202 0.27202 44.669 0 0-0.27517-0.27201 0.25409 0.25409 130.31 0 0-0.23111 0.27244z"/></svg>
