<!-- Created with Inkscape (http://www.inkscape.org/) -->
<svg version="1.1" viewBox="0 0 210.17 41.74" xmlns="http://www.w3.org/2000/svg" aria-label="Raymond Lewandowski"><g transform="translate(-.59632 -1.0225)"><path transform="matrix(.66483 0 0 .66483 -24.851 -32.063)" d="m51.334 49.766c-7.2103 0-13.057 5.8464-13.057 13.057v36.67c0 7.2103 5.8464 13.057 13.057 13.057h94.596c7.2103 0 13.057-5.8464 13.057-13.057v-36.67c0-7.2103-5.8464-13.057-13.057-13.057zm0 2.6465h94.596c5.7903 0 10.412 4.6199 10.412 10.41v36.67c0 5.7903-4.6218 10.412-10.412 10.412h-94.596c-5.7903 0-10.41-4.6219-10.41-10.412v-36.67c0-5.7903 4.6199-10.41 10.41-10.41z" stroke-linejoin="round"/><path d="m16.318 12.64q1.9325 0 3.3085 0.64932 1.3914 0.64932 2.1026 1.8243 0.72662 1.175 0.72662 2.7364 0 1.7625-1.144 2.9838-1.144 1.2213-3.1384 1.6697 0.86577 0.34012 1.4378 1.0977 0.47926 0.63386 0.81939 1.2677 0.34012 0.6184 0.75754 1.5306 0.43288 0.94307 0.66478 1.376 0.60294 1.1131 1.3914 1.1131h0.43288q0.52564 0 0.74208 0.24736 0.2319 0.2319 0.2319 0.80393t-0.2319 0.81938q-0.21644 0.2319-0.74208 0.2319h-1.1131q-0.92761 0-1.5769-0.47926-0.63386-0.49472-1.2368-1.6697-0.34012-0.68024-0.83485-1.7934-0.4638-1.0204-0.75754-1.5769-0.27828-0.57202-0.68024-1.1286-0.4638-0.64932-1.1131-0.97399-0.64932-0.34012-1.5615-0.34012h-2.1026v5.8594h2.0098q0.52564 0 0.74208 0.24736 0.2319 0.2319 0.2319 0.80393t-0.2319 0.81938q-0.21644 0.2319-0.74208 0.2319h-6.215q-0.52564 0-0.75755-0.2319-0.21644-0.24736-0.21644-0.81938t0.21644-0.80393q0.2319-0.24736 0.75755-0.24736h1.8861v-14.146h-1.8861q-0.52564 0-0.75755-0.2319-0.21644-0.24736-0.21644-0.81938t0.21644-0.80393q0.2319-0.24736 0.75755-0.24736zm-3.6177 8.2866h3.1384q4.1742 0 4.1742-3.0766 0-1.4842-1.0513-2.2881-1.0513-0.81939-2.9683-0.81939h-3.293zm19.938 0.41742q-1.1131 0-1.6079-0.21644-0.47926-0.2319-0.47926-0.75754v-2.8447q0-0.52564 0.47926-0.74208 0.49472-0.2319 1.6079-0.2319t1.5924 0.2319q0.49472 0.21644 0.49472 0.74208v2.8447q0 0.52564-0.49472 0.75754-0.47926 0.21644-1.5924 0.21644zm0 9.8017q-1.1131 0-1.6079-0.21644-0.47926-0.2319-0.47926-0.75754v-2.8447q0-0.52564 0.47926-0.74208 0.49472-0.2319 1.6079-0.2319t1.5924 0.2319q0.49472 0.21644 0.49472 0.74208v2.8447q0 0.52564-0.49472 0.75754-0.47926 0.21644-1.5924 0.21644zm18.145-18.506q0.52564 0 0.74208 0.24736 0.2319 0.2319 0.2319 0.80393t-0.2319 0.81938q-0.21644 0.2319-0.74208 0.2319h-3.7413v14.146h7.6528v-5.0864q0-0.5411 0.26282-0.773 0.26282-0.2319 0.89669-0.2319 0.63386 0 0.89669 0.2319 0.26282 0.2319 0.26282 0.773v6.1377q0 0.57202-0.2319 0.81938-0.21644 0.2319-0.74208 0.2319h-13.821q-0.52564 0-0.75755-0.2319-0.21644-0.24736-0.21644-0.81938t0.21644-0.80393q0.2319-0.24736 0.75755-0.24736h2.5045v-14.146h-2.5045q-0.52564 0-0.75755-0.2319-0.21644-0.24736-0.21644-0.81938t0.21644-0.80393q0.2319-0.24736 0.75755-0.24736zm22.412 8.2712q0.3865 0.18552 0.55656 0.43288 0.17006 0.24736 0.17006 0.63386 0 0.3865-0.17006 0.63386-0.17006 0.24736-0.55656 0.43288l-12.013 5.8903q-0.3092 0.1546-0.57202 0.1546-0.51018 0-0.85031-0.66478-0.18552-0.37104-0.18552-0.64932 0-0.51018 0.63386-0.81939l10.389-4.9782-10.389-4.9782q-0.63386-0.3092-0.63386-0.81939 0-0.27828 0.18552-0.64932 0.34012-0.66478 0.85031-0.66478 0.26282 0 0.57202 0.1546z" aria-label="R : L &gt;"/><g transform="matrix(1.1923 0 0 1.1923 24.921 -132.79)"><path transform="matrix(.83873 0 0 .83873 -20.901 111.37)" d="m91.326 23.397q0.19664 0 0.30315 0.07374 0.10651 0.06555 0.15567 0.2458 0.05735 0.18025 0.05735 0.52437t-0.05735 0.52437q-0.04916 0.18025-0.15567 0.2458-0.10651 0.06555-0.30315 0.06555h-1.7861v6.2842h2.8758v-2.5563q0-0.27857 0.2458-0.39328 0.25399-0.1229 0.83571-0.1229 0.38508 0 0.58992 0.05735 0.21302 0.04916 0.29496 0.15567 0.08193 0.10651 0.08193 0.30315v3.7853q0 0.27857-0.1229 0.40966-0.1229 0.1229-0.40966 0.1229h-7.6361q-0.19664 0-0.30315-0.06555-0.10651-0.06555-0.16386-0.2458-0.04916-0.18025-0.04916-0.52437t0.04916-0.52437q0.05735-0.18025 0.16386-0.2458 0.10651-0.07374 0.30315-0.07374h1.1962v-6.3662h-1.1962q-0.19664 0-0.30315-0.06555-0.10651-0.06555-0.16386-0.2458-0.04916-0.18025-0.04916-0.52437t0.04916-0.52437q0.05735-0.18025 0.16386-0.2458 0.10651-0.07374 0.30315-0.07374zm10.756 1.9746q1.2454 0 2.122 0.54076 0.87668 0.53256 1.3191 1.4912 0.45063 0.95042 0.45063 2.1794 0 0.27857-0.1229 0.39328-0.11471 0.1147-0.39328 0.1147h-5.2601q0.15567 0.65546 0.66365 1.0078 0.51618 0.34412 1.3027 0.34412 1.27 0 2.7529-0.45063 0.0983-0.03277 0.19664-0.03277 0.18025 0 0.31135 0.16386 0.13109 0.16387 0.2376 0.55714 0.0819 0.30315 0.0819 0.51618t-0.0983 0.33592q-0.0901 0.1147-0.30315 0.18844-0.81932 0.27038-1.6714 0.42605t-1.6714 0.15567q-1.2454 0-2.1466-0.50798-0.90126-0.50798-1.3765-1.401-0.46702-0.90126-0.46702-2.0565 0-1.1471 0.4916-2.0483 0.4916-0.90126 1.4174-1.4092 0.92584-0.50798 2.163-0.50798zm0 1.8599q-1.4994 0-1.8517 1.2618h3.605q-0.13928-0.59811-0.5981-0.92584-0.45063-0.33592-1.1552-0.33592zm16.212-1.6796q0.19664 0 0.30315 0.07374 0.10651 0.06555 0.15567 0.2458 0.0573 0.18025 0.0573 0.52437t-0.0573 0.52437q-0.0492 0.18025-0.15567 0.2458-0.10651 0.06555-0.30315 0.06555h-0.33593l-1.1962 5.5386q-0.0656 0.29496-0.28677 0.40966-0.21302 0.1229-0.70462 0.1229-0.47521 0-0.70462-0.1229t-0.33592-0.40966l-1.1471-2.9086-1.1634 2.9086q-0.11471 0.28676-0.34412 0.40966t-0.71281 0.1229q-0.4916 0-0.70462-0.1229-0.20483-0.1147-0.27038-0.40966l-1.1716-5.5386h-0.27857q-0.19664 0-0.30315-0.06555t-0.15567-0.2458q-0.0573-0.18025-0.0573-0.52437t0.0573-0.52437q0.0492-0.18025 0.15567-0.2458 0.10651-0.07374 0.30315-0.07374h2.8185q0.19663 0 0.30315 0.07374 0.10651 0.06555 0.15567 0.2458 0.0573 0.18025 0.0573 0.52437t-0.0573 0.52437q-0.0492 0.18025-0.15567 0.2458-0.10652 0.06555-0.30315 0.06555h-0.69643l0.61449 3.179 1.1307-2.7775q0.0901-0.22941 0.27038-0.34412 0.18025-0.1229 0.51618-0.1229 0.35231 0 0.52436 0.09832 0.18026 0.09832 0.27038 0.31134l1.1225 2.8349 0.63907-3.179h-0.58991q-0.19664 0-0.30315-0.06555t-0.16387-0.2458q-0.0492-0.18025-0.0492-0.52437t0.0492-0.52437q0.0574-0.18025 0.16387-0.2458 0.10651-0.07374 0.30315-0.07374zm6.8804-0.18025q1.8025 0 2.6055 0.77836 0.80294 0.77836 0.80294 2.2286v2.3679q0 0.32773 0.13928 0.51618 0.13929 0.18025 0.40147 0.18025h0.25399q0.19664 0 0.30315 0.07374 0.10651 0.06555 0.15567 0.2458 0.0574 0.18025 0.0574 0.52437t-0.0574 0.52437q-0.0492 0.18025-0.15567 0.2458-0.10651 0.06555-0.30315 0.06555h-0.91764q-0.50799 0-0.90126-0.20483-0.38509-0.21302-0.58992-0.66365-0.64727 0.49979-1.3683 0.77836-0.72101 0.27038-1.483 0.27038-0.92584 0-1.5977-0.31134-0.67185-0.31954-1.0324-0.90126-0.35231-0.58991-0.35231-1.3847 0-1.1471 0.81113-1.7779 0.81114-0.63088 2.2695-0.63088 1.0897 0 2.3187 0.2458v-0.2376q0-0.54895-0.34412-0.81113-0.34411-0.26218-1.2126-0.26218-0.4834 0-1.0815 0.1229-0.58992 0.11471-1.1716 0.31134-0.13928 0.04097-0.2376 0.04097-0.20483 0-0.3687-0.14748-0.15567-0.15567-0.28676-0.51618-0.1229-0.3605-0.1229-0.58992 0-0.41786 0.37689-0.55714 0.7292-0.26218 1.5485-0.39328 0.81932-0.13109 1.5403-0.13109zm-0.75378 4.6128q-0.57353 0-0.87668 0.20483-0.29496 0.20483-0.29496 0.59811 0 0.38508 0.28677 0.58992 0.29495 0.19664 0.8439 0.19664 0.56534 0 1.1143-0.22122 0.55714-0.22941 1.0405-0.62269v-0.52437q-1.0815-0.22122-2.1139-0.22122zm13.664-4.6128q0.74559 0 1.3027 0.32773 0.56534 0.32773 0.86849 0.93403 0.30315 0.59811 0.30315 1.4092v3.4002h0.63088q0.19664 0 0.30315 0.07374 0.10651 0.06555 0.15567 0.2458 0.0574 0.18025 0.0574 0.52437t-0.0574 0.52437q-0.0492 0.18025-0.15567 0.2458-0.10651 0.06555-0.30315 0.06555h-3.0643q-0.19664 0-0.30315-0.06555t-0.16387-0.2458q-0.0492-0.18025-0.0492-0.52437t0.0492-0.52437q0.0574-0.18025 0.16387-0.2458 0.10651-0.07374 0.30315-0.07374h0.38508v-2.9168q0-0.63907-0.22122-0.9668-0.22121-0.32773-0.73739-0.32773-0.47521 0-0.90126 0.40147-0.42605 0.39328-0.68823 1.0569-0.25399 0.66365-0.25399 1.4174v1.3355h0.38508q0.19664 0 0.30315 0.07374 0.10651 0.06555 0.15567 0.2458 0.0574 0.18025 0.0574 0.52437t-0.0574 0.52437q-0.0492 0.18025-0.15567 0.2458-0.10651 0.06555-0.30315 0.06555h-3.0643q-0.19664 0-0.30315-0.06555t-0.16387-0.2458q-0.0491-0.18025-0.0491-0.52437t0.0491-0.52437q0.0574-0.18025 0.16387-0.2458 0.10651-0.07374 0.30315-0.07374h0.63088v-4.2113h-0.79474q-0.19664 0-0.30316-0.06555-0.10651-0.06555-0.16386-0.2458-0.0492-0.18025-0.0492-0.52437t0.0492-0.52437q0.0574-0.18025 0.16386-0.2458 0.10652-0.07374 0.30316-0.07374h1.9992q0.27857 0 0.39328 0.1229 0.1229 0.11471 0.1229 0.39328v1.188q1.0815-1.8844 2.7038-1.8844zm13.46-2.9987q0.27857 0 0.39328 0.1229 0.1229 0.1147 0.1229 0.39328v8.5538h0.71281q0.19664 0 0.30315 0.06555t0.15567 0.2458q0.0574 0.18025 0.0574 0.52437t-0.0574 0.52437q-0.0492 0.18025-0.15567 0.25399-0.10651 0.06555-0.30315 0.06555h-1.9172q-0.27857 0-0.40147-0.1147-0.11471-0.1229-0.11471-0.40147v-0.68823q-0.42605 0.65546-1.0651 1.0242-0.63908 0.3605-1.4174 0.3605-1.0733 0-1.8762-0.52437-0.80294-0.52437-1.229-1.4256t-0.42605-2.0155q0-1.1143 0.42605-2.0155t1.229-1.4256q0.80294-0.52437 1.8762-0.52437 0.63908 0 1.188 0.25399 0.54894 0.2458 0.9668 0.71281v-2.2859h-1.2044q-0.19664 0-0.30315-0.06555t-0.16386-0.2458q-0.0492-0.18025-0.0492-0.52437t0.0492-0.52437q0.0573-0.18025 0.16386-0.2458 0.10651-0.07374 0.30315-0.07374zm-3.3592 4.8586q-0.50798 0-0.88487 0.26218-0.37689 0.25399-0.58172 0.7292-0.19664 0.47521-0.19664 1.1143 0 0.63908 0.19664 1.1143 0.20483 0.47521 0.58172 0.73739 0.37689 0.25399 0.88487 0.25399 0.52437 0 0.95042-0.2458t0.68004-0.72101q0.25399-0.4834 0.25399-1.1389t-0.25399-1.1307q-0.25399-0.4834-0.68004-0.7292t-0.95042-0.2458zm12.026-1.8599q1.2454 0 2.1794 0.50798t1.4338 1.4092q0.50798 0.90126 0.50798 2.0483 0 1.1471-0.50798 2.0483-0.49979 0.90126-1.4338 1.4092t-2.1794 0.50798q-1.2454 0-2.1794-0.50798-0.93404-0.50798-1.442-1.4092-0.49979-0.90126-0.49979-2.0483 0-1.1471 0.49979-2.0483 0.50798-0.90126 1.442-1.4092 0.93403-0.50798 2.1794-0.50798zm0 1.8599q-0.58991 0-1.0242 0.26218-0.43425 0.25399-0.67185 0.7292-0.22941 0.47521-0.22941 1.1143 0 0.63908 0.22941 1.1143 0.2376 0.47521 0.67185 0.73739 0.43424 0.25399 1.0242 0.25399 0.58992 0 1.0242-0.25399 0.43424-0.26218 0.66366-0.73739 0.2376-0.47521 0.2376-1.1143 0-0.63907-0.2376-1.1143-0.22942-0.47521-0.66366-0.7292-0.43424-0.26218-1.0242-0.26218zm16.327-1.6796q0.19663 0 0.30315 0.07374 0.10651 0.06555 0.15567 0.2458 0.0574 0.18025 0.0574 0.52437t-0.0574 0.52437q-0.0492 0.18025-0.15567 0.2458-0.10652 0.06555-0.30315 0.06555h-0.33593l-1.1962 5.5386q-0.0656 0.29496-0.28677 0.40966-0.21302 0.1229-0.70462 0.1229-0.47521 0-0.70462-0.1229t-0.33592-0.40966l-1.1471-2.9086-1.1634 2.9086q-0.11471 0.28676-0.34412 0.40966t-0.71281 0.1229q-0.4916 0-0.70462-0.1229-0.20484-0.1147-0.27038-0.40966l-1.1716-5.5386h-0.27857q-0.19664 0-0.30315-0.06555t-0.15567-0.2458q-0.0574-0.18025-0.0574-0.52437t0.0574-0.52437q0.0492-0.18025 0.15567-0.2458 0.10651-0.07374 0.30315-0.07374h2.8185q0.19664 0 0.30315 0.07374 0.10652 0.06555 0.15568 0.2458 0.0574 0.18025 0.0574 0.52437t-0.0574 0.52437q-0.0492 0.18025-0.15568 0.2458-0.10651 0.06555-0.30315 0.06555h-0.69642l0.61449 3.179 1.1307-2.7775q0.0901-0.22941 0.27038-0.34412 0.18025-0.1229 0.51617-0.1229 0.35231 0 0.52437 0.09832 0.18025 0.09832 0.27038 0.31134l1.1225 2.8349 0.63907-3.179h-0.58991q-0.19664 0-0.30315-0.06555-0.10652-0.06555-0.16387-0.2458-0.0492-0.18025-0.0492-0.52437t0.0492-0.52437q0.0573-0.18025 0.16387-0.2458 0.10651-0.07374 0.30315-0.07374zm9.3629-0.18025q0.52437 0 0.74559 0.1229 0.22122 0.1147 0.22122 0.39328v1.7288q0 0.27857-0.18025 0.40147-0.17206 0.11471-0.57353 0.11471-0.43425 0-0.59811-0.17206-0.4834-0.51618-1.1061-0.7292-0.62269-0.22122-1.442-0.22122-0.4834 0-0.76197 0.17206-0.27038 0.17206-0.27038 0.45882 0 0.34412 0.6063 0.4916 0.31954 0.08193 1.0897 0.15567 0.76197 0.09013 1.2618 0.18025 0.50798 0.09013 0.95861 0.27038 0.65546 0.27038 1.0242 0.75378 0.3687 0.4834 0.3687 1.2781 0 0.77836-0.38509 1.3519-0.37689 0.56534-1.1143 0.87668-0.7292 0.30315-1.7616 0.30315-1.1389 0-2.1139-0.58172v0.06555q0 0.27857-0.23761 0.39328-0.2376 0.1229-0.76197 0.1229t-0.74559-0.1229q-0.22122-0.1147-0.22122-0.39328v-1.8271q0-0.27038 0.18845-0.39328 0.19664-0.1229 0.59811-0.1229 0.49979 0 0.68004 0.22941 0.40966 0.51618 1.0487 0.75378 0.63907 0.2376 1.401 0.2376 1.3109 0 1.3109-0.68004 0-0.20483-0.18845-0.32773-0.18025-0.1229-0.54075-0.20483-0.20484-0.04097-0.95042-0.14748-0.82752-0.09832-1.4256-0.22122-0.58992-0.13109-1.0733-0.40147-1.1307-0.62269-1.1307-1.9664 0-0.71281 0.38509-1.2454 0.38508-0.53256 1.0569-0.81113 0.68004-0.28676 1.5239-0.28676 1.2372 0 2.1958 0.59811v-0.08193q0-0.27857 0.19663-0.39328 0.20484-0.1229 0.72101-0.1229zm13.287 6.0712q0.28677 0 0.40147 0.17206 0.11471 0.17206 0.11471 0.67185 0 0.34412-0.0574 0.52437-0.0492 0.18025-0.15567 0.2458-0.10651 0.06555-0.30315 0.06555h-1.401q-0.40966 0-0.63907-0.32773l-2.0647-2.8676-1.1307 0.86029v0.65546h0.71281q0.19664 0 0.30315 0.07374 0.10651 0.06555 0.15567 0.2458 0.0574 0.18025 0.0574 0.52437t-0.0574 0.52437q-0.0492 0.18025-0.15567 0.2458-0.10651 0.06555-0.30315 0.06555h-3.392q-0.19664 0-0.30315-0.06555t-0.16387-0.2458q-0.0492-0.18025-0.0492-0.52437t0.0492-0.52437q0.0574-0.18025 0.16387-0.2458 0.10651-0.07374 0.30315-0.07374h0.63088v-7.3903h-0.79475q-0.19663 0-0.30315-0.06555-0.10651-0.06555-0.16386-0.2458-0.0492-0.18025-0.0492-0.52437t0.0492-0.52437q0.0573-0.18025 0.16386-0.2458 0.10652-0.07374 0.30315-0.07374h2.3269q0.27857 0 0.39328 0.1229 0.1229 0.1147 0.1229 0.39328v5.9155l2.1302-1.737h-0.40966q-0.28676 0-0.40147-0.15567-0.1147-0.15567-0.1147-0.59811 0-0.45063 0.1147-0.6063 0.11471-0.15567 0.40147-0.15567h3.392q0.28677 0 0.40147 0.15567 0.11471 0.15567 0.11471 0.6063 0 0.44244-0.11471 0.59811-0.1147 0.15567-0.40147 0.15567h-0.32773l-2.0401 1.6468 1.991 2.7284zm8.2404-5.891q0.27857 0 0.39328 0.1229 0.1229 0.11471 0.1229 0.39328v5.3748h2.3023q0.19664 0 0.30315 0.07374 0.10652 0.06555 0.15568 0.2458 0.0573 0.18025 0.0573 0.52437t-0.0573 0.52437q-0.0492 0.18025-0.15568 0.2458-0.10651 0.06555-0.30315 0.06555h-6.5874q-0.19664 0-0.30315-0.06555t-0.16387-0.2458q-0.0492-0.18025-0.0492-0.52437t0.0492-0.52437q0.0574-0.18025 0.16387-0.2458 0.10651-0.07374 0.30315-0.07374h2.2368v-4.2113h-1.7452q-0.19664 0-0.30315-0.06555-0.10652-0.06555-0.16387-0.2458-0.0492-0.18025-0.0492-0.52437t0.0492-0.52437q0.0574-0.18025 0.16387-0.2458 0.10651-0.07374 0.30315-0.07374zm-0.53256-3.5968q0.58172 0 0.81113 0.1229 0.23761 0.11471 0.23761 0.39328v1.3437q0 0.27857-0.22122 0.40147-0.21303 0.1147-0.78656 0.1147-0.57352 0-0.81113-0.1147-0.22941-0.1229-0.22941-0.40147v-1.3437q0-0.28676 0.21303-0.40147 0.21302-0.11471 0.78655-0.11471z"/><path transform="translate(4.3684e-8)" d="m55.143 117.3q1.4539 0 2.2325 0.64081 0.77862 0.64081 0.77862 1.8604 0 1.5917-1.7088 2.0051 0.37208 0.1447 0.59258 0.4272 0.1447 0.18605 0.26184 0.39276 0.12403 0.19982 0.28251 0.50989 0.16537 0.33074 0.25495 0.47544 0.13781 0.22738 0.27562 0.34452 0.13781 0.11025 0.31007 0.11025h0.13092q0.16537 0 0.25495 0.062 0.08957 0.0551 0.13092 0.20672 0.04823 0.15159 0.04823 0.44098 0 0.2894-0.04823 0.44099-0.04134 0.15159-0.13092 0.20671-0.08958 0.0551-0.25495 0.0551h-0.66837q-0.54434 0-0.88198-0.2205-0.33763-0.22049-0.62014-0.73727-0.13781-0.24117-0.33074-0.66148-0.13781-0.31696-0.26184-0.54435-0.12403-0.23427-0.27562-0.45477-0.2136-0.29628-0.47544-0.4272t-0.62703-0.13092h-0.44099v1.764h0.66837q0.16537 0 0.25495 0.062 0.08957 0.0551 0.13092 0.20672 0.04823 0.15159 0.04823 0.44098 0 0.2894-0.04823 0.44099-0.04134 0.15159-0.13092 0.20671-0.08958 0.0551-0.25495 0.0551h-3.1283q-0.16537 0-0.25495-0.0551-0.08958-0.0551-0.13781-0.20671-0.04134-0.15159-0.04134-0.44099 0-0.28939 0.04134-0.44098 0.04823-0.15159 0.13781-0.20672 0.08958-0.062 0.25495-0.062h0.73728v-5.3539h-0.73728q-0.16537 0-0.25495-0.0551-0.08958-0.0551-0.13781-0.20671-0.04134-0.15159-0.04134-0.44099t0.04134-0.44099q0.04823-0.15159 0.13781-0.20671 0.08958-0.062 0.25495-0.062zm-1.1714 3.521h1.0267q0.70282 0 1.0405-0.24806 0.33763-0.25494 0.33763-0.77173 0-0.51678-0.33763-0.76483-0.33763-0.25495-1.0405-0.25495h-1.0267zm12.484-1.8604q1.5159 0 2.1912 0.65459t0.67526 1.8742v1.9913q0 0.27562 0.11714 0.4341 0.11714 0.15159 0.33763 0.15159h0.2136q0.16537 0 0.25494 0.062 0.08958 0.0551 0.13092 0.20672 0.04823 0.15159 0.04823 0.44098 0 0.2894-0.04823 0.44099-0.04134 0.15159-0.13092 0.20671-0.08958 0.0551-0.25494 0.0551h-0.77173q-0.42721 0-0.75795-0.17226-0.32385-0.17915-0.49611-0.55813-0.54434 0.42032-1.1507 0.65459-0.60636 0.22739-1.2472 0.22739-0.77862 0-1.3436-0.26184-0.56502-0.26873-0.86819-0.75795-0.29629-0.49611-0.29629-1.1645 0-0.96466 0.68215-1.4952 0.68215-0.53057 1.9086-0.53057 0.91643 0 1.95 0.20672v-0.19983q0-0.46165-0.2894-0.68215-0.2894-0.22049-1.0198-0.22049-0.40654 0-0.90954 0.10335-0.49611 0.0965-0.98533 0.26184-0.11714 0.0345-0.19982 0.0345-0.17226 0-0.31007-0.12402-0.13092-0.13092-0.24116-0.4341-0.10336-0.30318-0.10336-0.49611 0-0.35141 0.31696-0.46855 0.61325-0.2205 1.3023-0.33074 0.68904-0.11025 1.2954-0.11025zm-0.63392 3.8793q-0.48233 0-0.73728 0.17226-0.24806 0.17226-0.24806 0.503 0 0.32385 0.24116 0.49612 0.24806 0.16537 0.70971 0.16537 0.47544 0 0.9371-0.18605 0.46855-0.19293 0.87508-0.52367v-0.44099q-0.90954-0.18604-1.7777-0.18604zm15.867-3.7277q0.16537 0 0.25495 0.062 0.08958 0.0551 0.13092 0.20672 0.04823 0.15159 0.04823 0.44098 0 0.2894-0.04823 0.44099-0.04134 0.15159-0.13092 0.20671-0.08957 0.0551-0.25495 0.0551h-0.44099l-2.639 5.347q-0.48233 0.97155-0.92332 1.4746-0.4341 0.5099-0.99911 0.71661-0.55812 0.2136-1.447 0.24116-0.24806 7e-3 -0.37897-0.18604-0.12403-0.19293-0.12403-0.70282 0-0.35141 0.08958-0.503 0.09647-0.15159 0.26873-0.16537 0.54434-0.0345 0.88198-0.20672 0.34452-0.17226 0.62014-0.55123 0.28251-0.37208 0.67526-1.13l-2.1085-4.3341h-0.51679q-0.16537 0-0.25495-0.0551-0.08957-0.0551-0.13781-0.20671-0.04134-0.15159-0.04134-0.44099 0-0.28939 0.04134-0.44098 0.04823-0.15159 0.13781-0.20672 0.08958-0.062 0.25495-0.062h2.7837q0.16537 0 0.25495 0.062 0.08957 0.0551 0.13092 0.20672 0.04823 0.15159 0.04823 0.44098 0 0.2894-0.04823 0.44099-0.04134 0.15159-0.13092 0.20671-0.08958 0.0551-0.25495 0.0551h-0.41343l1.1989 2.6184 1.1989-2.6184h-0.37208q-0.16537 0-0.25494-0.0551-0.08958-0.0551-0.13781-0.20671-0.04134-0.15159-0.04134-0.44099 0-0.28939 0.04134-0.44098 0.04823-0.15159 0.13781-0.20672 0.08957-0.062 0.25494-0.062zm10.541-0.15159q0.63392 0 0.99911 0.51678 0.36519 0.51679 0.36519 1.571v3.9964q0 0.23427-0.10336 0.33763-0.09647 0.0965-0.33074 0.0965h-0.85441q-0.23428 0-0.33763-0.0965-0.09647-0.10336-0.09647-0.33763v-3.6037q0-0.3652-0.08958-0.53746-0.08269-0.17226-0.26873-0.17226-0.32385 0-0.51678 0.503-0.18604 0.503-0.18604 1.4677v2.3428q0 0.23427-0.10336 0.33763-0.09647 0.0965-0.33074 0.0965h-0.85441q-0.23427 0-0.33763-0.0965-0.09647-0.10336-0.09647-0.33763v-3.6037q0-0.3652-0.08958-0.53746-0.08269-0.17226-0.26873-0.17226-0.32385 0-0.51678 0.503-0.18604 0.503-0.18604 1.4677v2.3428q0 0.23427-0.10336 0.33763-0.09647 0.0965-0.33074 0.0965h-0.85441q-0.23428 0-0.33763-0.0965-0.09647-0.10336-0.09647-0.33763v-4.5201h-0.39276q-0.16537 0-0.25495-0.0551-0.08957-0.0551-0.13092-0.20671-0.04823-0.15159-0.04823-0.44099 0-0.28939 0.04823-0.44098 0.04134-0.15159 0.13092-0.20672 0.08958-0.062 0.25495-0.062h1.1989q0.23428 0 0.33074 0.10336 0.10336 0.0965 0.10336 0.33074v0.99222q0.32385-0.77862 0.75795-1.1783 0.44099-0.39965 0.96466-0.39965 1.0198 0 1.3161 1.3988 0.31696-0.68905 0.73728-1.0405 0.42032-0.3583 0.90954-0.3583zm9.2111 0q1.0473 0 1.8328 0.42721 0.78551 0.4272 1.2058 1.1852 0.4272 0.75795 0.4272 1.7226t-0.4272 1.7226q-0.42032 0.75794-1.2058 1.1852t-1.8328 0.42721q-1.0474 0-1.8329-0.42721-0.78551-0.42721-1.2127-1.1852-0.42032-0.75795-0.42032-1.7226t0.42032-1.7226q0.42721-0.75795 1.2127-1.1852 0.78551-0.42721 1.8329-0.42721zm0 1.5641q-0.49611 0-0.86131 0.22049-0.36519 0.21361-0.56501 0.61325-0.19294 0.39965-0.19294 0.9371t0.19294 0.9371q0.19982 0.39964 0.56501 0.62014 0.3652 0.2136 0.86131 0.2136t0.8613-0.2136q0.36519-0.2205 0.55812-0.62014 0.19983-0.39965 0.19983-0.9371t-0.19983-0.9371q-0.19293-0.39964-0.55812-0.61325-0.36519-0.22049-0.8613-0.22049zm12.622-1.5641q0.62703 0 1.0956 0.27562 0.47544 0.27561 0.73039 0.78551 0.25494 0.503 0.25494 1.1852v2.8595h0.53057q0.16537 0 0.25494 0.062 0.0896 0.0551 0.13092 0.20672 0.0482 0.15159 0.0482 0.44098 0 0.2894-0.0482 0.44099-0.0413 0.15159-0.13092 0.20671-0.0896 0.0551-0.25494 0.0551h-2.577q-0.16537 0-0.25495-0.0551-0.0896-0.0551-0.13781-0.20671-0.0413-0.15159-0.0413-0.44099 0-0.28939 0.0413-0.44098 0.0482-0.15159 0.13781-0.20672 0.0896-0.062 0.25495-0.062h0.32385v-2.453q0-0.53746-0.18604-0.81307-0.18605-0.27562-0.62014-0.27562-0.39965 0-0.75795 0.33763-0.3583 0.33074-0.5788 0.88886-0.2136 0.55813-0.2136 1.192v1.1231h0.32385q0.16537 0 0.25495 0.062 0.0896 0.0551 0.13091 0.20672 0.0482 0.15159 0.0482 0.44098 0 0.2894-0.0482 0.44099-0.0413 0.15159-0.13091 0.20671-0.0896 0.0551-0.25495 0.0551h-2.577q-0.16537 0-0.25495-0.0551-0.0896-0.0551-0.13781-0.20671-0.0413-0.15159-0.0413-0.44099 0-0.28939 0.0413-0.44098 0.0482-0.15159 0.13781-0.20672 0.0896-0.062 0.25495-0.062h0.53056v-3.5417h-0.66837q-0.16537 0-0.25495-0.0551-0.0896-0.0551-0.1378-0.20671-0.0413-0.15159-0.0413-0.44099 0-0.28939 0.0413-0.44098 0.0482-0.15159 0.1378-0.20672 0.0896-0.062 0.25495-0.062h1.6813q0.23427 0 0.33074 0.10336 0.10335 0.0965 0.10335 0.33074v0.99911q0.90954-1.5848 2.2738-1.5848zm13.159-2.5219q0.23427 0 0.33074 0.10336 0.10336 0.0965 0.10336 0.33074v7.1936h0.59946q0.16538 0 0.25495 0.0551 0.0896 0.0551 0.13092 0.20672 0.0482 0.15158 0.0482 0.44098t-0.0482 0.44099q-0.0413 0.15159-0.13092 0.2136-0.0896 0.0551-0.25495 0.0551h-1.6124q-0.23427 0-0.33763-0.0965-0.0965-0.10336-0.0965-0.33763v-0.5788q-0.35831 0.55124-0.89576 0.86131-0.53745 0.30318-1.192 0.30318-0.90265 0-1.5779-0.44099t-1.0336-1.1989q-0.3583-0.75794-0.3583-1.695t0.3583-1.695q0.35831-0.75794 1.0336-1.1989t1.5779-0.44099q0.53745 0 0.99911 0.2136 0.46166 0.20672 0.81307 0.59947v-1.9224h-1.0129q-0.16537 0-0.25495-0.0551-0.0896-0.0551-0.13781-0.20671-0.0413-0.15159-0.0413-0.44099t0.0413-0.44099q0.0482-0.15159 0.13781-0.20671 0.0896-0.062 0.25495-0.062zm-2.8251 4.086q-0.4272 0-0.74416 0.22049-0.31696 0.21361-0.48922 0.61325-0.16537 0.39965-0.16537 0.9371t0.16537 0.9371q0.17226 0.39964 0.48922 0.62014 0.31696 0.2136 0.74416 0.2136 0.44099 0 0.79929-0.20671 0.35831-0.20672 0.57191-0.60636 0.2136-0.40654 0.2136-0.95777 0-0.55124-0.2136-0.95088-0.2136-0.40654-0.57191-0.61325-0.3583-0.20671-0.79929-0.20671z"/></g></g></svg>