<svg version="1.1" viewBox="0 0 80.251 41.74" xmlns="http://www.w3.org/2000/svg" class="icon-logo-small"><desc>Icon containing text: "R.L."</desc><g transform="translate(-.59632 -1.0225)"><path transform="matrix(.66483 0 0 .66483 -24.851 -32.063)" d="m51.334 49.766c-7.2103 0-13.057 5.8464-13.057 13.057v36.67c0 7.2103 5.8464 13.057 13.057 13.057h94.596c7.2103 0 13.057-5.8464 13.057-13.057v-36.67c0-7.2103-5.8464-13.057-13.057-13.057zm0 2.6465h94.596c5.7903 0 10.412 4.6199 10.412 10.41v36.67c0 5.7903-4.6218 10.412-10.412 10.412h-94.596c-5.7903 0-10.41-4.6219-10.41-10.412v-36.67c0-5.7903 4.6199-10.41 10.41-10.41z" stroke-linejoin="round"/><path d="m16.318 12.64q1.9325 0 3.3085 0.64932 1.3914 0.64932 2.1026 1.8243 0.72662 1.175 0.72662 2.7364 0 1.7625-1.144 2.9838-1.144 1.2213-3.1384 1.6697 0.86577 0.34012 1.4378 1.0977 0.47926 0.63386 0.81939 1.2677 0.34012 0.6184 0.75754 1.5306 0.43288 0.94307 0.66478 1.376 0.60294 1.1131 1.3914 1.1131h0.43288q0.52564 0 0.74208 0.24736 0.2319 0.2319 0.2319 0.80393t-0.2319 0.81938q-0.21644 0.2319-0.74208 0.2319h-1.1131q-0.92761 0-1.5769-0.47926-0.63386-0.49472-1.2368-1.6697-0.34012-0.68024-0.83485-1.7934-0.4638-1.0204-0.75754-1.5769-0.27828-0.57202-0.68024-1.1286-0.4638-0.64932-1.1131-0.97399-0.64932-0.34012-1.5615-0.34012h-2.1026v5.8594h2.0098q0.52564 0 0.74208 0.24736 0.2319 0.2319 0.2319 0.80393t-0.2319 0.81938q-0.21644 0.2319-0.74208 0.2319h-6.215q-0.52564 0-0.75755-0.2319-0.21644-0.24736-0.21644-0.81938t0.21644-0.80393q0.2319-0.24736 0.75755-0.24736h1.8861v-14.146h-1.8861q-0.52564 0-0.75755-0.2319-0.21644-0.24736-0.21644-0.81938t0.21644-0.80393q0.2319-0.24736 0.75755-0.24736zm-3.6177 8.2866h3.1384q4.1742 0 4.1742-3.0766 0-1.4842-1.0513-2.2881-1.0513-0.81939-2.9683-0.81939h-3.293zm19.938 0.41742q-1.1131 0-1.6079-0.21644-0.47926-0.2319-0.47926-0.75754v-2.8447q0-0.52564 0.47926-0.74208 0.49472-0.2319 1.6079-0.2319t1.5924 0.2319q0.49472 0.21644 0.49472 0.74208v2.8447q0 0.52564-0.49472 0.75754-0.47926 0.21644-1.5924 0.21644zm0 9.8017q-1.1131 0-1.6079-0.21644-0.47926-0.2319-0.47926-0.75754v-2.8447q0-0.52564 0.47926-0.74208 0.49472-0.2319 1.6079-0.2319t1.5924 0.2319q0.49472 0.21644 0.49472 0.74208v2.8447q0 0.52564-0.49472 0.75754-0.47926 0.21644-1.5924 0.21644zm18.145-18.506q0.52564 0 0.74208 0.24736 0.2319 0.2319 0.2319 0.80393t-0.2319 0.81938q-0.21644 0.2319-0.74208 0.2319h-3.7413v14.146h7.6528v-5.0864q0-0.5411 0.26282-0.773 0.26282-0.2319 0.89669-0.2319 0.63386 0 0.89669 0.2319 0.26282 0.2319 0.26282 0.773v6.1377q0 0.57202-0.2319 0.81938-0.21644 0.2319-0.74208 0.2319h-13.821q-0.52564 0-0.75755-0.2319-0.21644-0.24736-0.21644-0.81938t0.21644-0.80393q0.2319-0.24736 0.75755-0.24736h2.5045v-14.146h-2.5045q-0.52564 0-0.75755-0.2319-0.21644-0.24736-0.21644-0.81938t0.21644-0.80393q0.2319-0.24736 0.75755-0.24736zm22.412 8.2712q0.3865 0.18552 0.55656 0.43288 0.17006 0.24736 0.17006 0.63386 0 0.3865-0.17006 0.63386-0.17006 0.24736-0.55656 0.43288l-12.013 5.8903q-0.3092 0.1546-0.57202 0.1546-0.51018 0-0.85031-0.66478-0.18552-0.37104-0.18552-0.64932 0-0.51018 0.63386-0.81939l10.389-4.9782-10.389-4.9782q-0.63386-0.3092-0.63386-0.81939 0-0.27828 0.18552-0.64932 0.34012-0.66478 0.85031-0.66478 0.26282 0 0.57202 0.1546z"/></g><g transform="translate(-102.2 -1.0225)" display="none"><path transform="matrix(.66483 0 0 .66483 -24.851 -32.063)" d="m51.334 49.766c-7.2103 0-13.057 5.8464-13.057 13.057v36.67c0 7.2103 5.8464 13.057 13.057 13.057h94.596c7.2103 0 13.057-5.8464 13.057-13.057v-36.67c0-7.2103-5.8464-13.057-13.057-13.057zm0 2.6465h94.596c5.7903 0 10.412 4.6199 10.412 10.41v36.67c0 5.7903-4.6218 10.412-10.412 10.412h-94.596c-5.7903 0-10.41-4.6219-10.41-10.412v-36.67c0-5.7903 4.6199-10.41 10.41-10.41z" stroke-linejoin="round"/><path d="m16.318 12.64q1.9325 0 3.3085 0.64932 1.3914 0.64932 2.1026 1.8243 0.72662 1.175 0.72662 2.7364 0 1.7625-1.144 2.9838-1.144 1.2213-3.1384 1.6697 0.86577 0.34012 1.4378 1.0977 0.47926 0.63386 0.81939 1.2677 0.34012 0.6184 0.75754 1.5306 0.43288 0.94307 0.66478 1.376 0.60294 1.1131 1.3914 1.1131h0.43288q0.52564 0 0.74208 0.24736 0.2319 0.2319 0.2319 0.80393t-0.2319 0.81938q-0.21644 0.2319-0.74208 0.2319h-1.1131q-0.92761 0-1.5769-0.47926-0.63386-0.49472-1.2368-1.6697-0.34012-0.68024-0.83485-1.7934-0.4638-1.0204-0.75754-1.5769-0.27828-0.57202-0.68024-1.1286-0.4638-0.64932-1.1131-0.97399-0.64932-0.34012-1.5615-0.34012h-2.1026v5.8594h2.0098q0.52564 0 0.74208 0.24736 0.2319 0.2319 0.2319 0.80393t-0.2319 0.81938q-0.21644 0.2319-0.74208 0.2319h-6.215q-0.52564 0-0.75755-0.2319-0.21644-0.24736-0.21644-0.81938t0.21644-0.80393q0.2319-0.24736 0.75755-0.24736h1.8861v-14.146h-1.8861q-0.52564 0-0.75755-0.2319-0.21644-0.24736-0.21644-0.81938t0.21644-0.80393q0.2319-0.24736 0.75755-0.24736zm-3.6177 8.2866h3.1384q4.1742 0 4.1742-3.0766 0-1.4842-1.0513-2.2881-1.0513-0.81939-2.9683-0.81939h-3.293zm19.938 0.41742q-1.1131 0-1.6079-0.21644-0.47926-0.2319-0.47926-0.75754v-2.8447q0-0.52564 0.47926-0.74208 0.49472-0.2319 1.6079-0.2319t1.5924 0.2319q0.49472 0.21644 0.49472 0.74208v2.8447q0 0.52564-0.49472 0.75754-0.47926 0.21644-1.5924 0.21644zm0 9.8017q-1.1131 0-1.6079-0.21644-0.47926-0.2319-0.47926-0.75754v-2.8447q0-0.52564 0.47926-0.74208 0.49472-0.2319 1.6079-0.2319t1.5924 0.2319q0.49472 0.21644 0.49472 0.74208v2.8447q0 0.52564-0.49472 0.75754-0.47926 0.21644-1.5924 0.21644zm18.145-18.506q0.52564 0 0.74208 0.24736 0.2319 0.2319 0.2319 0.80393t-0.2319 0.81938q-0.21644 0.2319-0.74208 0.2319h-3.7413v14.146h7.6528v-5.0864q0-0.5411 0.26282-0.773 0.26282-0.2319 0.89669-0.2319 0.63386 0 0.89669 0.2319 0.26282 0.2319 0.26282 0.773v6.1377q0 0.57202-0.2319 0.81938-0.21644 0.2319-0.74208 0.2319h-13.821q-0.52564 0-0.75755-0.2319-0.21644-0.24736-0.21644-0.81938t0.21644-0.80393q0.2319-0.24736 0.75755-0.24736h2.5045v-14.146h-2.5045q-0.52564 0-0.75755-0.2319-0.21644-0.24736-0.21644-0.81938t0.21644-0.80393q0.2319-0.24736 0.75755-0.24736zm22.412 8.2712q0.3865 0.18552 0.55656 0.43288 0.17006 0.24736 0.17006 0.63386 0 0.3865-0.17006 0.63386-0.17006 0.24736-0.55656 0.43288l-12.013 5.8903q-0.3092 0.1546-0.57202 0.1546-0.51018 0-0.85031-0.66478-0.18552-0.37104-0.18552-0.64932 0-0.51018 0.63386-0.81939l10.389-4.9782-10.389-4.9782q-0.63386-0.3092-0.63386-0.81939 0-0.27828 0.18552-0.64932 0.34012-0.66478 0.85031-0.66478 0.26282 0 0.57202 0.1546z"/><g transform="matrix(.67278 0 0 .67278 -28.824 -31.918)"><path transform="matrix(1.4864 0 0 1.4864 42.842 47.442)" d="m8.7063 56.216q0.11116 0 0.17138 0.04169 0.060214 0.03706 0.088005 0.13896 0.032423 0.1019 0.032423 0.29644t-0.032423 0.29644q-0.027791 0.1019-0.088005 0.13896-0.060214 0.03706-0.17138 0.03706h-1.0097v3.5526h1.6258v-1.4451q0-0.15748 0.13896-0.22233 0.14359-0.06948 0.47245-0.06948 0.2177 0 0.33349 0.03242 0.12043 0.02779 0.16675 0.08801 0.04632 0.06021 0.04632 0.17138v2.1399q0 0.15748-0.06948 0.23159-0.06948 0.06948-0.23159 0.06948h-4.3169q-0.11116 0-0.17138-0.03705-0.060214-0.03705-0.092637-0.13896-0.027791-0.1019-0.027791-0.29644t0.027791-0.29644q0.032423-0.1019 0.092637-0.13896 0.060214-0.04169 0.17138-0.04169h0.67625v-3.5989h-0.67625q-0.11116 0-0.17138-0.03706-0.060214-0.03705-0.092637-0.13896-0.027791-0.1019-0.027791-0.29644t0.027791-0.29644q0.032423-0.1019 0.092637-0.13896 0.060214-0.04169 0.17138-0.04169zm6.08 1.1163q0.70404 0 1.1996 0.3057 0.49561 0.30107 0.74573 0.843 0.25475 0.53729 0.25475 1.2321 0 0.15748-0.06948 0.22233-0.06485 0.06485-0.22233 0.06485h-2.9736q0.08801 0.37055 0.37518 0.56972 0.29181 0.19454 0.73646 0.19454 0.71793 0 1.5563-0.25475 0.05558-0.01853 0.11116-0.01853 0.1019 0 0.17601 0.09264t0.13432 0.31496q0.04632 0.17138 0.04632 0.29181 0 0.12043-0.05558 0.1899-0.05095 0.06485-0.17138 0.10653-0.46318 0.15285-0.94489 0.24086-0.48171 0.088-0.9449 0.088-0.70404 0-1.2135-0.28717-0.5095-0.28717-0.77815-0.79204-0.26402-0.5095-0.26402-1.1626 0-0.64846 0.27791-1.158t0.80131-0.79668q0.5234-0.28717 1.2228-0.28717zm0 1.0514q-0.84763 0-1.0468 0.7133h2.038q-0.07874-0.33812-0.33812-0.5234-0.25475-0.1899-0.65309-0.1899zm9.1648-0.94953q0.11116 0 0.17138 0.04169 0.06021 0.03706 0.088 0.13896 0.03242 0.1019 0.03242 0.29644t-0.03242 0.29644q-0.02779 0.1019-0.088 0.13896-0.06021 0.03706-0.17138 0.03706h-0.1899l-0.67625 3.1311q-0.03705 0.16675-0.16211 0.23159-0.12043 0.06948-0.39834 0.06948-0.26865 0-0.39834-0.06948t-0.1899-0.23159l-0.64846-1.6443-0.65772 1.6443q-0.06485 0.16211-0.19454 0.23159-0.12969 0.06948-0.40297 0.06948-0.27791 0-0.39834-0.06948-0.1158-0.06485-0.15285-0.23159l-0.66235-3.1311h-0.15748q-0.11116 0-0.17138-0.03706-0.06021-0.03705-0.088-0.13896-0.03242-0.1019-0.03242-0.29644t0.03242-0.29644q0.02779-0.1019 0.088-0.13896 0.06021-0.04169 0.17138-0.04169h1.5934q0.11116 0 0.17138 0.04169 0.06021 0.03706 0.088 0.13896 0.03242 0.1019 0.03242 0.29644t-0.03242 0.29644q-0.02779 0.1019-0.088 0.13896-0.06021 0.03706-0.17138 0.03706h-0.39371l0.34739 1.7972 0.63919-1.5702q0.05095-0.12969 0.15285-0.19454 0.1019-0.06948 0.2918-0.06948 0.19917 0 0.29644 0.05558 0.1019 0.05558 0.15285 0.17601l0.63456 1.6026 0.36128-1.7972h-0.33349q-0.11116 0-0.17138-0.03706-0.06021-0.03705-0.09264-0.13896-0.02779-0.1019-0.02779-0.29644t0.02779-0.29644q0.03242-0.1019 0.09264-0.13896 0.06021-0.04169 0.17138-0.04169zm3.8891-0.1019q1.019 0 1.4729 0.44002 0.45392 0.44002 0.45392 1.2599v1.3386q0 0.18527 0.07874 0.2918 0.07874 0.1019 0.22696 0.1019h0.14359q0.11116 0 0.17138 0.04169 0.06021 0.03706 0.088 0.13896 0.03242 0.1019 0.03242 0.29644t-0.03242 0.29644q-0.02779 0.1019-0.088 0.13896-0.06021 0.03705-0.17138 0.03705h-0.51877q-0.28717 0-0.5095-0.1158-0.2177-0.12043-0.33349-0.37518-0.36592 0.28254-0.77352 0.44002-0.4076 0.15285-0.83836 0.15285-0.5234 0-0.90321-0.17601-0.37981-0.18064-0.58361-0.5095-0.19917-0.33349-0.19917-0.78278 0-0.64846 0.45855-1.0051 0.45855-0.35665 1.283-0.35665 0.61603 0 1.3108 0.13896v-0.13432q0-0.31033-0.19454-0.45855-0.19454-0.14822-0.68551-0.14822-0.27328 0-0.6114 0.06948-0.33349 0.06484-0.66235 0.17601-0.07874 0.02316-0.13432 0.02316-0.1158 0-0.20843-0.08337-0.08801-0.088-0.16211-0.2918-0.06948-0.2038-0.06948-0.33349 0-0.23622 0.21306-0.31496 0.41223-0.14822 0.87542-0.22233 0.46318-0.07411 0.87078-0.07411zm-0.42613 2.6077q-0.32423 0-0.49561 0.1158-0.16675 0.1158-0.16675 0.33812 0 0.2177 0.16211 0.33349 0.16675 0.11116 0.47708 0.11116 0.3196 0 0.62993-0.12506 0.31496-0.12969 0.58824-0.35202v-0.29644q-0.6114-0.12506-1.195-0.12506zm7.7243-2.6077q0.4215 0 0.73646 0.18527 0.3196 0.18527 0.49098 0.52803 0.17138 0.33812 0.17138 0.79668v1.9222h0.35665q0.11116 0 0.17138 0.04169 0.06021 0.03706 0.08801 0.13896 0.03242 0.1019 0.03242 0.29644t-0.03242 0.29644q-0.02779 0.1019-0.08801 0.13896-0.06021 0.03705-0.17138 0.03705h-1.7323q-0.11116 0-0.17138-0.03705-0.06021-0.03705-0.09264-0.13896-0.02779-0.1019-0.02779-0.29644t0.02779-0.29644q0.03242-0.1019 0.09264-0.13896 0.06021-0.04169 0.17138-0.04169h0.2177v-1.6489q0-0.36128-0.12506-0.54656-0.12506-0.18527-0.41686-0.18527-0.26865 0-0.5095 0.22696-0.24086 0.22233-0.38908 0.59751-0.14359 0.37518-0.14359 0.80131v0.75499h0.2177q0.11116 0 0.17138 0.04169 0.06021 0.03706 0.08801 0.13896 0.03242 0.1019 0.03242 0.29644t-0.03242 0.29644q-0.02779 0.1019-0.08801 0.13896-0.06021 0.03705-0.17138 0.03705h-1.7323q-0.11116 0-0.17138-0.03705-0.06021-0.03705-0.09264-0.13896-0.02779-0.1019-0.02779-0.29644t0.02779-0.29644q0.03242-0.1019 0.09264-0.13896 0.06021-0.04169 0.17138-0.04169h0.35665v-2.3808h-0.44929q-0.11116 0-0.17138-0.03706-0.06021-0.03705-0.09264-0.13896-0.02779-0.1019-0.02779-0.29644t0.02779-0.29644q0.03242-0.1019 0.09264-0.13896 0.06021-0.04169 0.17138-0.04169h1.1302q0.15748 0 0.22233 0.06948 0.06948 0.06485 0.06948 0.22233v0.67162q0.6114-1.0653 1.5285-1.0653zm7.6085-1.6953q0.15748 0 0.22233 0.06948 0.06948 0.06484 0.06948 0.22233v4.8356h0.40297q0.11116 0 0.17138 0.03705 0.06021 0.03705 0.08801 0.13896 0.03242 0.1019 0.03242 0.29644t-0.03242 0.29644q-0.02779 0.1019-0.08801 0.14359-0.06021 0.03705-0.17138 0.03705h-1.0838q-0.15748 0-0.22696-0.06485-0.06485-0.06948-0.06485-0.22696v-0.38907q-0.24086 0.37055-0.60214 0.57898-0.36128 0.2038-0.80131 0.2038-0.60677 0-1.0607-0.29644-0.45392-0.29644-0.69478-0.80594-0.24086-0.5095-0.24086-1.1394t0.24086-1.1394 0.69478-0.80594q0.45392-0.29644 1.0607-0.29644 0.36128 0 0.67162 0.14359 0.31033 0.13896 0.54656 0.40297v-1.2923h-0.68088q-0.11116 0-0.17138-0.03706-0.06021-0.03706-0.09264-0.13896-0.02779-0.1019-0.02779-0.29644t0.02779-0.29644q0.03242-0.1019 0.09264-0.13896 0.06021-0.04169 0.17138-0.04169zm-1.8991 2.7467q-0.28717 0-0.50024 0.14822-0.21306 0.14359-0.32886 0.41223-0.11116 0.26865-0.11116 0.62993t0.11116 0.62993q0.1158 0.26865 0.32886 0.41686 0.21306 0.14359 0.50024 0.14359 0.29644 0 0.53729-0.13896 0.24086-0.13896 0.38444-0.4076 0.14359-0.27328 0.14359-0.64382t-0.14359-0.63919q-0.14359-0.27328-0.38444-0.41223-0.24086-0.13896-0.53729-0.13896zm6.7979-1.0514q0.70404 0 1.2321 0.28717 0.52803 0.28717 0.81057 0.79668 0.28717 0.5095 0.28717 1.158t-0.28717 1.158q-0.28254 0.5095-0.81057 0.79668-0.52803 0.28717-1.2321 0.28717t-1.2321-0.28717q-0.52803-0.28717-0.8152-0.79668-0.28254-0.5095-0.28254-1.158t0.28254-1.158q0.28717-0.5095 0.8152-0.79668 0.52803-0.28717 1.2321-0.28717zm0 1.0514q-0.33349 0-0.57898 0.14822-0.24549 0.14359-0.37981 0.41223-0.12969 0.26865-0.12969 0.62993t0.12969 0.62993q0.13432 0.26865 0.37981 0.41686 0.24549 0.14359 0.57898 0.14359t0.57898-0.14359q0.24549-0.14822 0.37518-0.41686 0.13432-0.26865 0.13432-0.62993t-0.13432-0.62993q-0.12969-0.26865-0.37518-0.41223-0.24549-0.14822-0.57898-0.14822zm9.2296-0.94953q0.11116 0 0.17138 0.04169 0.06021 0.03706 0.08801 0.13896 0.03242 0.1019 0.03242 0.29644t-0.03242 0.29644q-0.02779 0.1019-0.08801 0.13896-0.06021 0.03706-0.17138 0.03706h-0.18991l-0.67625 3.1311q-0.03705 0.16675-0.16211 0.23159-0.12043 0.06948-0.39834 0.06948-0.26865 0-0.39834-0.06948-0.12969-0.06948-0.1899-0.23159l-0.64846-1.6443-0.65772 1.6443q-0.06485 0.16211-0.19454 0.23159-0.12969 0.06948-0.40297 0.06948-0.27791 0-0.39834-0.06948-0.1158-0.06485-0.15285-0.23159l-0.66235-3.1311h-0.15748q-0.11116 0-0.17138-0.03706-0.06021-0.03705-0.08801-0.13896-0.03242-0.1019-0.03242-0.29644t0.03242-0.29644q0.02779-0.1019 0.08801-0.13896 0.06021-0.04169 0.17138-0.04169h1.5934q0.11116 0 0.17138 0.04169 0.06021 0.03706 0.088 0.13896 0.03242 0.1019 0.03242 0.29644t-0.03242 0.29644q-0.02779 0.1019-0.088 0.13896-0.06021 0.03706-0.17138 0.03706h-0.39371l0.34739 1.7972 0.63919-1.5702q0.05095-0.12969 0.15285-0.19454 0.1019-0.06948 0.29181-0.06948 0.19917 0 0.29644 0.05558 0.1019 0.05558 0.15285 0.17601l0.63456 1.6026 0.36128-1.7972h-0.33349q-0.11116 0-0.17138-0.03706-0.06021-0.03705-0.09264-0.13896-0.02779-0.1019-0.02779-0.29644t0.02779-0.29644q0.03242-0.1019 0.09264-0.13896 0.06021-0.04169 0.17138-0.04169zm5.2925-0.1019q0.29644 0 0.4215 0.06948 0.12506 0.06484 0.12506 0.22233v0.97732q0 0.15748-0.1019 0.22696-0.09727 0.06485-0.32423 0.06485-0.24549 0-0.33812-0.09727-0.27328-0.2918-0.6253-0.41223-0.35202-0.12506-0.8152-0.12506-0.27328 0-0.43076 0.09727-0.15285 0.09727-0.15285 0.25938 0 0.19454 0.34276 0.27791 0.18064 0.04632 0.61603 0.08801 0.43076 0.05095 0.7133 0.1019 0.28717 0.05095 0.54192 0.15285 0.37055 0.15285 0.57898 0.42613 0.20843 0.27328 0.20843 0.72257 0 0.44002-0.2177 0.76425-0.21306 0.3196-0.62993 0.49561-0.41223 0.17138-0.99584 0.17138-0.64382 0-1.195-0.32886v0.03706q0 0.15748-0.13432 0.22233-0.13432 0.06948-0.43076 0.06948-0.29644 0-0.4215-0.06948-0.12506-0.06485-0.12506-0.22233v-1.0329q0-0.15285 0.10653-0.22233 0.11116-0.06948 0.33812-0.06948 0.28254 0 0.38444 0.12969 0.23159 0.29181 0.59288 0.42613t0.79204 0.13432q0.74109 0 0.74109-0.38444 0-0.1158-0.10653-0.18527-0.1019-0.06948-0.3057-0.1158-0.1158-0.02316-0.53729-0.08337-0.46782-0.05558-0.80594-0.12506-0.33349-0.07411-0.60677-0.22696-0.63919-0.35202-0.63919-1.1116 0-0.40297 0.2177-0.70404 0.2177-0.30107 0.59751-0.45855 0.38444-0.16211 0.86152-0.16211 0.69941 0 1.2413 0.33812v-0.04632q0-0.15748 0.11116-0.22233 0.1158-0.06948 0.4076-0.06948zm7.5112 3.4322q0.16211 0 0.22696 0.09727 0.06485 0.09727 0.06485 0.37981 0 0.19454-0.03242 0.29644-0.02779 0.1019-0.088 0.13896-0.06021 0.03705-0.17138 0.03705h-0.79204q-0.23159 0-0.36128-0.18527l-1.1672-1.6211-0.63919 0.48634v0.37055h0.40297q0.11116 0 0.17138 0.04169 0.06021 0.03706 0.08801 0.13896 0.03242 0.1019 0.03242 0.29644t-0.03242 0.29644q-0.02779 0.1019-0.08801 0.13896-0.06021 0.03705-0.17138 0.03705h-1.9176q-0.11116 0-0.17138-0.03705-0.06021-0.03705-0.09264-0.13896-0.02779-0.1019-0.02779-0.29644t0.02779-0.29644q0.03242-0.1019 0.09264-0.13896 0.06021-0.04169 0.17138-0.04169h0.35665v-4.1779h-0.44929q-0.11116 0-0.17138-0.03706-0.06021-0.03706-0.09264-0.13896-0.02779-0.1019-0.02779-0.29644t0.02779-0.29644q0.03242-0.1019 0.09264-0.13896 0.06021-0.04169 0.17138-0.04169h1.3154q0.15748 0 0.22233 0.06948 0.06948 0.06484 0.06948 0.22233v3.3442l1.2043-0.98195h-0.23159q-0.16211 0-0.22696-0.08801-0.06485-0.08801-0.06485-0.33812 0-0.25475 0.06485-0.34276 0.06485-0.088 0.22696-0.088h1.9176q0.16212 0 0.22696 0.088 0.06485 0.08801 0.06485 0.34276 0 0.25012-0.06485 0.33812-0.06484 0.08801-0.22696 0.08801h-0.18527l-1.1533 0.931 1.1255 1.5424zm4.658-3.3303q0.15748 0 0.22233 0.06948 0.06948 0.06485 0.06948 0.22233v3.0385h1.3015q0.11116 0 0.17138 0.04169 0.06021 0.03706 0.088 0.13896 0.03242 0.1019 0.03242 0.29644t-0.03242 0.29644q-0.02779 0.1019-0.088 0.13896-0.06021 0.03705-0.17138 0.03705h-3.724q-0.11116 0-0.17138-0.03705-0.06021-0.03705-0.09264-0.13896-0.02779-0.1019-0.02779-0.29644t0.02779-0.29644q0.03242-0.1019 0.09264-0.13896 0.06021-0.04169 0.17138-0.04169h1.2645v-2.3808h-0.98658q-0.11116 0-0.17138-0.03706-0.06021-0.03705-0.09264-0.13896-0.02779-0.1019-0.02779-0.29644t0.02779-0.29644q0.03242-0.1019 0.09264-0.13896 0.06021-0.04169 0.17138-0.04169zm-0.30107-2.0334q0.32886 0 0.45855 0.06948 0.13432 0.06485 0.13432 0.22233v0.75962q0 0.15748-0.12506 0.22696-0.12043 0.06485-0.44466 0.06485-0.32423 0-0.45855-0.06485-0.12969-0.06948-0.12969-0.22696v-0.75962q0-0.16211 0.12043-0.22696 0.12043-0.06484 0.44466-0.06484z"/><path d="m55.123 117.31q1.4538 0 2.2324 0.64078 0.77859 0.64079 0.77859 1.8604 0 1.5916-1.7088 2.005 0.37207 0.14469 0.59256 0.42719 0.14469 0.18603 0.26183 0.39274 0.12402 0.19982 0.2825 0.50987 0.16536 0.33073 0.25494 0.47543 0.1378 0.22737 0.27561 0.34451 0.1378 0.11024 0.31006 0.11024h0.13091q0.16536 0 0.25494 0.062 0.08957 0.0551 0.13091 0.20671 0.04823 0.15158 0.04823 0.44097t-0.04823 0.44097q-0.04134 0.15158-0.13091 0.20671-0.08957 0.0551-0.25494 0.0551h-0.66835q-0.54432 0-0.88194-0.22049-0.33762-0.22048-0.62012-0.73725-0.1378-0.24116-0.33073-0.66146-0.1378-0.31695-0.26183-0.54432-0.12402-0.23427-0.27561-0.45475-0.2136-0.29628-0.47542-0.4272-0.26183-0.13091-0.62701-0.13091h-0.44097v1.7639h0.66835q0.16536 0 0.25494 0.062 0.08957 0.0551 0.13091 0.20671 0.04823 0.15158 0.04823 0.44097t-0.04823 0.44097q-0.04134 0.15158-0.13091 0.20671-0.08957 0.0551-0.25494 0.0551h-3.1281q-0.16536 0-0.25494-0.0551-0.08957-0.0551-0.1378-0.20671-0.04134-0.15158-0.04134-0.44097t0.04134-0.44097q0.04823-0.15159 0.1378-0.20671 0.08957-0.062 0.25494-0.062h0.73725v-5.3537h-0.73725q-0.16536 0-0.25494-0.0551-0.08957-0.0551-0.1378-0.2067-0.04134-0.15159-0.04134-0.44097 0-0.28939 0.04134-0.44098 0.04823-0.15158 0.1378-0.2067 0.08957-0.062 0.25494-0.062zm-1.1713 3.5209h1.0266q0.7028 0 1.0404-0.24805 0.33762-0.25493 0.33762-0.7717 0-0.51676-0.33762-0.76481-0.33762-0.25493-1.0404-0.25493h-1.0266zm12.484-1.8604q1.5158 0 2.1911 0.65457 0.67524 0.65457 0.67524 1.8741v1.9913q0 0.27561 0.11713 0.43408 0.11713 0.15159 0.33762 0.15159h0.2136q0.16536 0 0.25494 0.062 0.08957 0.0551 0.13091 0.20671 0.04823 0.15158 0.04823 0.44097t-0.04823 0.44097q-0.04134 0.15158-0.13091 0.20671-0.08957 0.0551-0.25494 0.0551h-0.7717q-0.42719 0-0.75792-0.17226-0.32384-0.17914-0.49609-0.5581-0.54432 0.4203-1.1507 0.65456-0.60634 0.22738-1.2471 0.22738-0.77859 0-1.3436-0.26183-0.565-0.26871-0.86816-0.75792-0.29628-0.49609-0.29628-1.1644 0-0.96462 0.68213-1.4952 0.68213-0.53054 1.9086-0.53054 0.91639 0 1.9499 0.2067v-0.19981q0-0.46164-0.28939-0.68213-0.28939-0.22049-1.0197-0.22049-0.40652 0-0.9095 0.10336-0.49609 0.0965-0.9853 0.26182-0.11713 0.0344-0.19982 0.0344-0.17225 0-0.31006-0.12402-0.13091-0.13091-0.24116-0.43408-0.10335-0.30317-0.10335-0.49609 0-0.3514 0.31695-0.46854 0.61323-0.22048 1.3022-0.33073 0.68902-0.11024 1.2954-0.11024zm-0.6339 3.8792q-0.48231 0-0.73725 0.17225-0.24805 0.17226-0.24805 0.50298 0 0.32384 0.24116 0.4961 0.24805 0.16536 0.70969 0.16536 0.47542 0 0.93707-0.18603 0.46853-0.19293 0.87505-0.52366v-0.44097q-0.9095-0.18603-1.7777-0.18603zm15.867-3.7276q0.16536 0 0.25494 0.062 0.08957 0.0551 0.13091 0.2067 0.04823 0.15159 0.04823 0.44097 0 0.28939-0.04823 0.44098-0.04134 0.15158-0.13091 0.2067-0.08957 0.0551-0.25494 0.0551h-0.44097l-2.6389 5.3468q-0.48231 0.97151-0.92328 1.4745-0.43408 0.50987-0.99908 0.71658-0.5581 0.21359-1.4469 0.24115-0.24805 7e-3 -0.37896-0.18603-0.12402-0.19293-0.12402-0.7028 0-0.3514 0.08957-0.50298 0.09646-0.15159 0.26872-0.16537 0.54432-0.0344 0.88194-0.2067 0.34451-0.17226 0.62012-0.55122 0.2825-0.37207 0.67524-1.13l-2.1084-4.3339h-0.51676q-0.16536 0-0.25494-0.0551-0.08957-0.0551-0.1378-0.2067-0.04134-0.15159-0.04134-0.44098 0-0.28938 0.04134-0.44097 0.04823-0.15158 0.1378-0.2067 0.08957-0.062 0.25494-0.062h2.7836q0.16536 0 0.25494 0.062 0.08957 0.0551 0.13091 0.2067 0.04823 0.15159 0.04823 0.44097 0 0.28939-0.04823 0.44098-0.04134 0.15158-0.13091 0.2067-0.08957 0.0551-0.25494 0.0551h-0.41341l1.1989 2.6183 1.1989-2.6183h-0.37207q-0.16536 0-0.25494-0.0551-0.08957-0.0551-0.1378-0.2067-0.04134-0.15159-0.04134-0.44098 0-0.28938 0.04134-0.44097 0.04823-0.15158 0.1378-0.2067 0.08957-0.062 0.25494-0.062zm10.541-0.15159q0.6339 0 0.99908 0.51677 0.36518 0.51676 0.36518 1.571v3.9963q0 0.23426-0.10335 0.33761-0.09646 0.0965-0.33073 0.0965h-0.85438q-0.23427 0-0.33762-0.0965-0.09646-0.10335-0.09646-0.33761v-3.6036q0-0.36518-0.08957-0.53744-0.08268-0.17225-0.26872-0.17225-0.32384 0-0.51676 0.50298-0.18604 0.50299-0.18604 1.4676v2.3427q0 0.23426-0.10335 0.33761-0.09646 0.0965-0.33073 0.0965h-0.85438q-0.23427 0-0.33762-0.0965-0.09646-0.10335-0.09646-0.33761v-3.6036q0-0.36518-0.08957-0.53744-0.08268-0.17225-0.26872-0.17225-0.32384 0-0.51676 0.50298-0.18604 0.50299-0.18604 1.4676v2.3427q0 0.23426-0.10335 0.33761-0.09646 0.0965-0.33073 0.0965h-0.85438q-0.23427 0-0.33762-0.0965-0.09646-0.10335-0.09646-0.33761v-4.52h-0.39274q-0.16536 0-0.25494-0.0551-0.08957-0.0551-0.13091-0.2067-0.04823-0.15159-0.04823-0.44098 0-0.28938 0.04823-0.44097 0.04134-0.15158 0.13091-0.2067 0.08957-0.062 0.25494-0.062h1.1989q0.23427 0 0.33073 0.10335 0.10335 0.0965 0.10335 0.33073v0.99218q0.32384-0.77859 0.75792-1.1782 0.44097-0.39963 0.96463-0.39963 1.0197 0 1.316 1.3987 0.31695-0.68902 0.73725-1.0404 0.4203-0.35829 0.9095-0.35829zm9.2108 0q1.0473 0 1.8328 0.42719 0.78548 0.42719 1.2058 1.1851 0.42719 0.75793 0.42719 1.7226 0 0.96463-0.42719 1.7226-0.4203 0.75792-1.2058 1.1851-0.78549 0.42719-1.8328 0.42719-1.0473 0-1.8328-0.42719-0.78548-0.42719-1.2127-1.1851-0.4203-0.75792-0.4203-1.7226 0-0.96462 0.4203-1.7226 0.42719-0.75792 1.2127-1.1851 0.78548-0.42719 1.8328-0.42719zm0 1.5641q-0.4961 0-0.86128 0.22049-0.36518 0.2136-0.56499 0.61323-0.19292 0.39963-0.19292 0.93706 0 0.53744 0.19292 0.93707 0.19981 0.39963 0.56499 0.62011 0.36518 0.2136 0.86128 0.2136 0.49609 0 0.86127-0.2136 0.36518-0.22048 0.5581-0.62011 0.19982-0.39963 0.19982-0.93707 0-0.53743-0.19982-0.93706-0.19292-0.39963-0.5581-0.61323-0.36518-0.22049-0.86127-0.22049zm12.621-1.5641q0.62701 0 1.0955 0.27561 0.47542 0.27561 0.73036 0.78548 0.25493 0.50298 0.25493 1.1851v2.8594h0.53055q0.16536 0 0.25494 0.062 0.0896 0.0551 0.13091 0.20671 0.0482 0.15158 0.0482 0.44097t-0.0482 0.44097q-0.0413 0.15158-0.13091 0.20671-0.0896 0.0551-0.25494 0.0551h-2.5769q-0.16536 0-0.25494-0.0551-0.0896-0.0551-0.1378-0.20671-0.0413-0.15158-0.0413-0.44097t0.0413-0.44097q0.0482-0.15159 0.1378-0.20671 0.0896-0.062 0.25494-0.062h0.32384v-2.4529q0-0.53743-0.18604-0.81304-0.18603-0.27561-0.62011-0.27561-0.39963 0-0.75792 0.33762-0.35829 0.33073-0.57878 0.88884-0.21359 0.5581-0.21359 1.192v1.1231h0.32383q0.16537 0 0.25494 0.062 0.0896 0.0551 0.13091 0.20671 0.0482 0.15158 0.0482 0.44097t-0.0482 0.44097q-0.0413 0.15158-0.13091 0.20671-0.0896 0.0551-0.25494 0.0551h-2.5769q-0.16536 0-0.25493-0.0551-0.0896-0.0551-0.13781-0.20671-0.0413-0.15158-0.0413-0.44097t0.0413-0.44097q0.0482-0.15159 0.13781-0.20671 0.0896-0.062 0.25493-0.062h0.53055v-3.5416h-0.66835q-0.16536 0-0.25494-0.0551-0.0896-0.0551-0.1378-0.2067-0.0413-0.15159-0.0413-0.44098 0-0.28938 0.0413-0.44097 0.0482-0.15158 0.1378-0.2067 0.0896-0.062 0.25494-0.062h1.6812q0.23426 0 0.33072 0.10335 0.10336 0.0965 0.10336 0.33073v0.99907q0.9095-1.5847 2.2738-1.5847zm13.159-2.5218q0.23426 0 0.33073 0.10336 0.10335 0.0965 0.10335 0.33073v7.1934h0.59944q0.16537 0 0.25494 0.0551 0.0896 0.0551 0.13091 0.20671 0.0482 0.15158 0.0482 0.44097t-0.0482 0.44097q-0.0413 0.15158-0.13091 0.2136-0.0896 0.0551-0.25494 0.0551h-1.6123q-0.23427 0-0.33762-0.0965-0.0965-0.10335-0.0965-0.33761v-0.57878q-0.35829 0.55121-0.89573 0.86127-0.53743 0.30317-1.192 0.30317-0.90261 0-1.5778-0.44097t-1.0335-1.1989-0.35829-1.695q0-0.93706 0.35829-1.695t1.0335-1.1989q0.67524-0.44097 1.5778-0.44097 0.53744 0 0.99908 0.2136 0.46164 0.2067 0.81304 0.59944v-1.9224h-1.0129q-0.16536 0-0.25493-0.0551-0.0896-0.0551-0.13781-0.20671-0.0413-0.15158-0.0413-0.44097t0.0413-0.44097q0.0482-0.15158 0.13781-0.20671 0.0896-0.062 0.25493-0.062zm-2.825 4.0859q-0.42719 0-0.74414 0.22049-0.31695 0.2136-0.4892 0.61323-0.16537 0.39963-0.16537 0.93706 0 0.53744 0.16537 0.93707 0.17225 0.39963 0.4892 0.62011 0.31695 0.2136 0.74414 0.2136 0.44097 0 0.79926-0.20671 0.35829-0.2067 0.57189-0.60633 0.21359-0.40652 0.21359-0.95774 0-0.55121-0.21359-0.95084-0.2136-0.40653-0.57189-0.61323-0.35829-0.20671-0.79926-0.20671z" display="inline"/></g></g><g transform="translate(-333.5 -1.0225)" display="none"><path transform="matrix(.66483 0 0 .66483 -24.851 -32.063)" d="m51.334 49.766c-7.2103 0-13.057 5.8464-13.057 13.057v36.67c0 7.2103 5.8464 13.057 13.057 13.057h94.596c7.2103 0 13.057-5.8464 13.057-13.057v-36.67c0-7.2103-5.8464-13.057-13.057-13.057zm0 2.6465h94.596c5.7903 0 10.412 4.6199 10.412 10.41v36.67c0 5.7903-4.6218 10.412-10.412 10.412h-94.596c-5.7903 0-10.41-4.6219-10.41-10.412v-36.67c0-5.7903 4.6199-10.41 10.41-10.41z" display="inline" stroke-linejoin="round"/><path d="m16.318 12.64q1.9325 0 3.3085 0.64932 1.3914 0.64932 2.1026 1.8243 0.72662 1.175 0.72662 2.7364 0 1.7625-1.144 2.9838-1.144 1.2213-3.1384 1.6697 0.86577 0.34012 1.4378 1.0977 0.47926 0.63386 0.81939 1.2677 0.34012 0.6184 0.75754 1.5306 0.43288 0.94307 0.66478 1.376 0.60294 1.1131 1.3914 1.1131h0.43288q0.52564 0 0.74208 0.24736 0.2319 0.2319 0.2319 0.80393t-0.2319 0.81938q-0.21644 0.2319-0.74208 0.2319h-1.1131q-0.92761 0-1.5769-0.47926-0.63386-0.49472-1.2368-1.6697-0.34012-0.68024-0.83485-1.7934-0.4638-1.0204-0.75754-1.5769-0.27828-0.57202-0.68024-1.1286-0.4638-0.64932-1.1131-0.97399-0.64932-0.34012-1.5615-0.34012h-2.1026v5.8594h2.0098q0.52564 0 0.74208 0.24736 0.2319 0.2319 0.2319 0.80393t-0.2319 0.81938q-0.21644 0.2319-0.74208 0.2319h-6.215q-0.52564 0-0.75755-0.2319-0.21644-0.24736-0.21644-0.81938t0.21644-0.80393q0.2319-0.24736 0.75755-0.24736h1.8861v-14.146h-1.8861q-0.52564 0-0.75755-0.2319-0.21644-0.24736-0.21644-0.81938t0.21644-0.80393q0.2319-0.24736 0.75755-0.24736zm-3.6177 8.2866h3.1384q4.1742 0 4.1742-3.0766 0-1.4842-1.0513-2.2881-1.0513-0.81939-2.9683-0.81939h-3.293zm19.938 0.41742q-1.1131 0-1.6079-0.21644-0.47926-0.2319-0.47926-0.75754v-2.8447q0-0.52564 0.47926-0.74208 0.49472-0.2319 1.6079-0.2319t1.5924 0.2319q0.49472 0.21644 0.49472 0.74208v2.8447q0 0.52564-0.49472 0.75754-0.47926 0.21644-1.5924 0.21644zm0 9.8017q-1.1131 0-1.6079-0.21644-0.47926-0.2319-0.47926-0.75754v-2.8447q0-0.52564 0.47926-0.74208 0.49472-0.2319 1.6079-0.2319t1.5924 0.2319q0.49472 0.21644 0.49472 0.74208v2.8447q0 0.52564-0.49472 0.75754-0.47926 0.21644-1.5924 0.21644zm18.145-18.506q0.52564 0 0.74208 0.24736 0.2319 0.2319 0.2319 0.80393t-0.2319 0.81938q-0.21644 0.2319-0.74208 0.2319h-3.7413v14.146h7.6528v-5.0864q0-0.5411 0.26282-0.773 0.26282-0.2319 0.89669-0.2319 0.63386 0 0.89669 0.2319 0.26282 0.2319 0.26282 0.773v6.1377q0 0.57202-0.2319 0.81938-0.21644 0.2319-0.74208 0.2319h-13.821q-0.52564 0-0.75755-0.2319-0.21644-0.24736-0.21644-0.81938t0.21644-0.80393q0.2319-0.24736 0.75755-0.24736h2.5045v-14.146h-2.5045q-0.52564 0-0.75755-0.2319-0.21644-0.24736-0.21644-0.81938t0.21644-0.80393q0.2319-0.24736 0.75755-0.24736zm22.412 8.2712q0.3865 0.18552 0.55656 0.43288 0.17006 0.24736 0.17006 0.63386 0 0.3865-0.17006 0.63386-0.17006 0.24736-0.55656 0.43288l-12.013 5.8903q-0.3092 0.1546-0.57202 0.1546-0.51018 0-0.85031-0.66478-0.18552-0.37104-0.18552-0.64932 0-0.51018 0.63386-0.81939l10.389-4.9782-10.389-4.9782q-0.63386-0.3092-0.63386-0.81939 0-0.27828 0.18552-0.64932 0.34012-0.66478 0.85031-0.66478 0.26282 0 0.57202 0.1546z" aria-label="R : L &gt;"/><g transform="matrix(1.1923 0 0 1.1923 24.921 -132.79)" display="inline"><path transform="matrix(.83873 0 0 .83873 -20.901 111.37)" d="m91.326 23.397q0.19664 0 0.30315 0.07374 0.10651 0.06555 0.15567 0.2458 0.05735 0.18025 0.05735 0.52437t-0.05735 0.52437q-0.04916 0.18025-0.15567 0.2458-0.10651 0.06555-0.30315 0.06555h-1.7861v6.2842h2.8758v-2.5563q0-0.27857 0.2458-0.39328 0.25399-0.1229 0.83571-0.1229 0.38508 0 0.58992 0.05735 0.21302 0.04916 0.29496 0.15567 0.08193 0.10651 0.08193 0.30315v3.7853q0 0.27857-0.1229 0.40966-0.1229 0.1229-0.40966 0.1229h-7.6361q-0.19664 0-0.30315-0.06555-0.10651-0.06555-0.16386-0.2458-0.04916-0.18025-0.04916-0.52437t0.04916-0.52437q0.05735-0.18025 0.16386-0.2458 0.10651-0.07374 0.30315-0.07374h1.1962v-6.3662h-1.1962q-0.19664 0-0.30315-0.06555-0.10651-0.06555-0.16386-0.2458-0.04916-0.18025-0.04916-0.52437t0.04916-0.52437q0.05735-0.18025 0.16386-0.2458 0.10651-0.07374 0.30315-0.07374zm10.756 1.9746q1.2454 0 2.122 0.54076 0.87668 0.53256 1.3191 1.4912 0.45063 0.95042 0.45063 2.1794 0 0.27857-0.1229 0.39328-0.11471 0.1147-0.39328 0.1147h-5.2601q0.15567 0.65546 0.66365 1.0078 0.51618 0.34412 1.3027 0.34412 1.27 0 2.7529-0.45063 0.0983-0.03277 0.19664-0.03277 0.18025 0 0.31135 0.16386 0.13109 0.16387 0.2376 0.55714 0.0819 0.30315 0.0819 0.51618t-0.0983 0.33592q-0.0901 0.1147-0.30315 0.18844-0.81932 0.27038-1.6714 0.42605t-1.6714 0.15567q-1.2454 0-2.1466-0.50798-0.90126-0.50798-1.3765-1.401-0.46702-0.90126-0.46702-2.0565 0-1.1471 0.4916-2.0483 0.4916-0.90126 1.4174-1.4092 0.92584-0.50798 2.163-0.50798zm0 1.8599q-1.4994 0-1.8517 1.2618h3.605q-0.13928-0.59811-0.5981-0.92584-0.45063-0.33592-1.1552-0.33592zm16.212-1.6796q0.19664 0 0.30315 0.07374 0.10651 0.06555 0.15567 0.2458 0.0573 0.18025 0.0573 0.52437t-0.0573 0.52437q-0.0492 0.18025-0.15567 0.2458-0.10651 0.06555-0.30315 0.06555h-0.33593l-1.1962 5.5386q-0.0656 0.29496-0.28677 0.40966-0.21302 0.1229-0.70462 0.1229-0.47521 0-0.70462-0.1229t-0.33592-0.40966l-1.1471-2.9086-1.1634 2.9086q-0.11471 0.28676-0.34412 0.40966t-0.71281 0.1229q-0.4916 0-0.70462-0.1229-0.20483-0.1147-0.27038-0.40966l-1.1716-5.5386h-0.27857q-0.19664 0-0.30315-0.06555t-0.15567-0.2458q-0.0573-0.18025-0.0573-0.52437t0.0573-0.52437q0.0492-0.18025 0.15567-0.2458 0.10651-0.07374 0.30315-0.07374h2.8185q0.19663 0 0.30315 0.07374 0.10651 0.06555 0.15567 0.2458 0.0573 0.18025 0.0573 0.52437t-0.0573 0.52437q-0.0492 0.18025-0.15567 0.2458-0.10652 0.06555-0.30315 0.06555h-0.69643l0.61449 3.179 1.1307-2.7775q0.0901-0.22941 0.27038-0.34412 0.18025-0.1229 0.51618-0.1229 0.35231 0 0.52436 0.09832 0.18026 0.09832 0.27038 0.31134l1.1225 2.8349 0.63907-3.179h-0.58991q-0.19664 0-0.30315-0.06555t-0.16387-0.2458q-0.0492-0.18025-0.0492-0.52437t0.0492-0.52437q0.0574-0.18025 0.16387-0.2458 0.10651-0.07374 0.30315-0.07374zm6.8804-0.18025q1.8025 0 2.6055 0.77836 0.80294 0.77836 0.80294 2.2286v2.3679q0 0.32773 0.13928 0.51618 0.13929 0.18025 0.40147 0.18025h0.25399q0.19664 0 0.30315 0.07374 0.10651 0.06555 0.15567 0.2458 0.0574 0.18025 0.0574 0.52437t-0.0574 0.52437q-0.0492 0.18025-0.15567 0.2458-0.10651 0.06555-0.30315 0.06555h-0.91764q-0.50799 0-0.90126-0.20483-0.38509-0.21302-0.58992-0.66365-0.64727 0.49979-1.3683 0.77836-0.72101 0.27038-1.483 0.27038-0.92584 0-1.5977-0.31134-0.67185-0.31954-1.0324-0.90126-0.35231-0.58991-0.35231-1.3847 0-1.1471 0.81113-1.7779 0.81114-0.63088 2.2695-0.63088 1.0897 0 2.3187 0.2458v-0.2376q0-0.54895-0.34412-0.81113-0.34411-0.26218-1.2126-0.26218-0.4834 0-1.0815 0.1229-0.58992 0.11471-1.1716 0.31134-0.13928 0.04097-0.2376 0.04097-0.20483 0-0.3687-0.14748-0.15567-0.15567-0.28676-0.51618-0.1229-0.3605-0.1229-0.58992 0-0.41786 0.37689-0.55714 0.7292-0.26218 1.5485-0.39328 0.81932-0.13109 1.5403-0.13109zm-0.75378 4.6128q-0.57353 0-0.87668 0.20483-0.29496 0.20483-0.29496 0.59811 0 0.38508 0.28677 0.58992 0.29495 0.19664 0.8439 0.19664 0.56534 0 1.1143-0.22122 0.55714-0.22941 1.0405-0.62269v-0.52437q-1.0815-0.22122-2.1139-0.22122zm13.664-4.6128q0.74559 0 1.3027 0.32773 0.56534 0.32773 0.86849 0.93403 0.30315 0.59811 0.30315 1.4092v3.4002h0.63088q0.19664 0 0.30315 0.07374 0.10651 0.06555 0.15567 0.2458 0.0574 0.18025 0.0574 0.52437t-0.0574 0.52437q-0.0492 0.18025-0.15567 0.2458-0.10651 0.06555-0.30315 0.06555h-3.0643q-0.19664 0-0.30315-0.06555t-0.16387-0.2458q-0.0492-0.18025-0.0492-0.52437t0.0492-0.52437q0.0574-0.18025 0.16387-0.2458 0.10651-0.07374 0.30315-0.07374h0.38508v-2.9168q0-0.63907-0.22122-0.9668-0.22121-0.32773-0.73739-0.32773-0.47521 0-0.90126 0.40147-0.42605 0.39328-0.68823 1.0569-0.25399 0.66365-0.25399 1.4174v1.3355h0.38508q0.19664 0 0.30315 0.07374 0.10651 0.06555 0.15567 0.2458 0.0574 0.18025 0.0574 0.52437t-0.0574 0.52437q-0.0492 0.18025-0.15567 0.2458-0.10651 0.06555-0.30315 0.06555h-3.0643q-0.19664 0-0.30315-0.06555t-0.16387-0.2458q-0.0491-0.18025-0.0491-0.52437t0.0491-0.52437q0.0574-0.18025 0.16387-0.2458 0.10651-0.07374 0.30315-0.07374h0.63088v-4.2113h-0.79474q-0.19664 0-0.30316-0.06555-0.10651-0.06555-0.16386-0.2458-0.0492-0.18025-0.0492-0.52437t0.0492-0.52437q0.0574-0.18025 0.16386-0.2458 0.10652-0.07374 0.30316-0.07374h1.9992q0.27857 0 0.39328 0.1229 0.1229 0.11471 0.1229 0.39328v1.188q1.0815-1.8844 2.7038-1.8844zm13.46-2.9987q0.27857 0 0.39328 0.1229 0.1229 0.1147 0.1229 0.39328v8.5538h0.71281q0.19664 0 0.30315 0.06555t0.15567 0.2458q0.0574 0.18025 0.0574 0.52437t-0.0574 0.52437q-0.0492 0.18025-0.15567 0.25399-0.10651 0.06555-0.30315 0.06555h-1.9172q-0.27857 0-0.40147-0.1147-0.11471-0.1229-0.11471-0.40147v-0.68823q-0.42605 0.65546-1.0651 1.0242-0.63908 0.3605-1.4174 0.3605-1.0733 0-1.8762-0.52437-0.80294-0.52437-1.229-1.4256t-0.42605-2.0155q0-1.1143 0.42605-2.0155t1.229-1.4256q0.80294-0.52437 1.8762-0.52437 0.63908 0 1.188 0.25399 0.54894 0.2458 0.9668 0.71281v-2.2859h-1.2044q-0.19664 0-0.30315-0.06555t-0.16386-0.2458q-0.0492-0.18025-0.0492-0.52437t0.0492-0.52437q0.0573-0.18025 0.16386-0.2458 0.10651-0.07374 0.30315-0.07374zm-3.3592 4.8586q-0.50798 0-0.88487 0.26218-0.37689 0.25399-0.58172 0.7292-0.19664 0.47521-0.19664 1.1143 0 0.63908 0.19664 1.1143 0.20483 0.47521 0.58172 0.73739 0.37689 0.25399 0.88487 0.25399 0.52437 0 0.95042-0.2458t0.68004-0.72101q0.25399-0.4834 0.25399-1.1389t-0.25399-1.1307q-0.25399-0.4834-0.68004-0.7292t-0.95042-0.2458zm12.026-1.8599q1.2454 0 2.1794 0.50798t1.4338 1.4092q0.50798 0.90126 0.50798 2.0483 0 1.1471-0.50798 2.0483-0.49979 0.90126-1.4338 1.4092t-2.1794 0.50798q-1.2454 0-2.1794-0.50798-0.93404-0.50798-1.442-1.4092-0.49979-0.90126-0.49979-2.0483 0-1.1471 0.49979-2.0483 0.50798-0.90126 1.442-1.4092 0.93403-0.50798 2.1794-0.50798zm0 1.8599q-0.58991 0-1.0242 0.26218-0.43425 0.25399-0.67185 0.7292-0.22941 0.47521-0.22941 1.1143 0 0.63908 0.22941 1.1143 0.2376 0.47521 0.67185 0.73739 0.43424 0.25399 1.0242 0.25399 0.58992 0 1.0242-0.25399 0.43424-0.26218 0.66366-0.73739 0.2376-0.47521 0.2376-1.1143 0-0.63907-0.2376-1.1143-0.22942-0.47521-0.66366-0.7292-0.43424-0.26218-1.0242-0.26218zm16.327-1.6796q0.19663 0 0.30315 0.07374 0.10651 0.06555 0.15567 0.2458 0.0574 0.18025 0.0574 0.52437t-0.0574 0.52437q-0.0492 0.18025-0.15567 0.2458-0.10652 0.06555-0.30315 0.06555h-0.33593l-1.1962 5.5386q-0.0656 0.29496-0.28677 0.40966-0.21302 0.1229-0.70462 0.1229-0.47521 0-0.70462-0.1229t-0.33592-0.40966l-1.1471-2.9086-1.1634 2.9086q-0.11471 0.28676-0.34412 0.40966t-0.71281 0.1229q-0.4916 0-0.70462-0.1229-0.20484-0.1147-0.27038-0.40966l-1.1716-5.5386h-0.27857q-0.19664 0-0.30315-0.06555t-0.15567-0.2458q-0.0574-0.18025-0.0574-0.52437t0.0574-0.52437q0.0492-0.18025 0.15567-0.2458 0.10651-0.07374 0.30315-0.07374h2.8185q0.19664 0 0.30315 0.07374 0.10652 0.06555 0.15568 0.2458 0.0574 0.18025 0.0574 0.52437t-0.0574 0.52437q-0.0492 0.18025-0.15568 0.2458-0.10651 0.06555-0.30315 0.06555h-0.69642l0.61449 3.179 1.1307-2.7775q0.0901-0.22941 0.27038-0.34412 0.18025-0.1229 0.51617-0.1229 0.35231 0 0.52437 0.09832 0.18025 0.09832 0.27038 0.31134l1.1225 2.8349 0.63907-3.179h-0.58991q-0.19664 0-0.30315-0.06555-0.10652-0.06555-0.16387-0.2458-0.0492-0.18025-0.0492-0.52437t0.0492-0.52437q0.0573-0.18025 0.16387-0.2458 0.10651-0.07374 0.30315-0.07374zm9.3629-0.18025q0.52437 0 0.74559 0.1229 0.22122 0.1147 0.22122 0.39328v1.7288q0 0.27857-0.18025 0.40147-0.17206 0.11471-0.57353 0.11471-0.43425 0-0.59811-0.17206-0.4834-0.51618-1.1061-0.7292-0.62269-0.22122-1.442-0.22122-0.4834 0-0.76197 0.17206-0.27038 0.17206-0.27038 0.45882 0 0.34412 0.6063 0.4916 0.31954 0.08193 1.0897 0.15567 0.76197 0.09013 1.2618 0.18025 0.50798 0.09013 0.95861 0.27038 0.65546 0.27038 1.0242 0.75378 0.3687 0.4834 0.3687 1.2781 0 0.77836-0.38509 1.3519-0.37689 0.56534-1.1143 0.87668-0.7292 0.30315-1.7616 0.30315-1.1389 0-2.1139-0.58172v0.06555q0 0.27857-0.23761 0.39328-0.2376 0.1229-0.76197 0.1229t-0.74559-0.1229q-0.22122-0.1147-0.22122-0.39328v-1.8271q0-0.27038 0.18845-0.39328 0.19664-0.1229 0.59811-0.1229 0.49979 0 0.68004 0.22941 0.40966 0.51618 1.0487 0.75378 0.63907 0.2376 1.401 0.2376 1.3109 0 1.3109-0.68004 0-0.20483-0.18845-0.32773-0.18025-0.1229-0.54075-0.20483-0.20484-0.04097-0.95042-0.14748-0.82752-0.09832-1.4256-0.22122-0.58992-0.13109-1.0733-0.40147-1.1307-0.62269-1.1307-1.9664 0-0.71281 0.38509-1.2454 0.38508-0.53256 1.0569-0.81113 0.68004-0.28676 1.5239-0.28676 1.2372 0 2.1958 0.59811v-0.08193q0-0.27857 0.19663-0.39328 0.20484-0.1229 0.72101-0.1229zm13.287 6.0712q0.28677 0 0.40147 0.17206 0.11471 0.17206 0.11471 0.67185 0 0.34412-0.0574 0.52437-0.0492 0.18025-0.15567 0.2458-0.10651 0.06555-0.30315 0.06555h-1.401q-0.40966 0-0.63907-0.32773l-2.0647-2.8676-1.1307 0.86029v0.65546h0.71281q0.19664 0 0.30315 0.07374 0.10651 0.06555 0.15567 0.2458 0.0574 0.18025 0.0574 0.52437t-0.0574 0.52437q-0.0492 0.18025-0.15567 0.2458-0.10651 0.06555-0.30315 0.06555h-3.392q-0.19664 0-0.30315-0.06555t-0.16387-0.2458q-0.0492-0.18025-0.0492-0.52437t0.0492-0.52437q0.0574-0.18025 0.16387-0.2458 0.10651-0.07374 0.30315-0.07374h0.63088v-7.3903h-0.79475q-0.19663 0-0.30315-0.06555-0.10651-0.06555-0.16386-0.2458-0.0492-0.18025-0.0492-0.52437t0.0492-0.52437q0.0573-0.18025 0.16386-0.2458 0.10652-0.07374 0.30315-0.07374h2.3269q0.27857 0 0.39328 0.1229 0.1229 0.1147 0.1229 0.39328v5.9155l2.1302-1.737h-0.40966q-0.28676 0-0.40147-0.15567-0.1147-0.15567-0.1147-0.59811 0-0.45063 0.1147-0.6063 0.11471-0.15567 0.40147-0.15567h3.392q0.28677 0 0.40147 0.15567 0.11471 0.15567 0.11471 0.6063 0 0.44244-0.11471 0.59811-0.1147 0.15567-0.40147 0.15567h-0.32773l-2.0401 1.6468 1.991 2.7284zm8.2404-5.891q0.27857 0 0.39328 0.1229 0.1229 0.11471 0.1229 0.39328v5.3748h2.3023q0.19664 0 0.30315 0.07374 0.10652 0.06555 0.15568 0.2458 0.0573 0.18025 0.0573 0.52437t-0.0573 0.52437q-0.0492 0.18025-0.15568 0.2458-0.10651 0.06555-0.30315 0.06555h-6.5874q-0.19664 0-0.30315-0.06555t-0.16387-0.2458q-0.0492-0.18025-0.0492-0.52437t0.0492-0.52437q0.0574-0.18025 0.16387-0.2458 0.10651-0.07374 0.30315-0.07374h2.2368v-4.2113h-1.7452q-0.19664 0-0.30315-0.06555-0.10652-0.06555-0.16387-0.2458-0.0492-0.18025-0.0492-0.52437t0.0492-0.52437q0.0574-0.18025 0.16387-0.2458 0.10651-0.07374 0.30315-0.07374zm-0.53256-3.5968q0.58172 0 0.81113 0.1229 0.23761 0.11471 0.23761 0.39328v1.3437q0 0.27857-0.22122 0.40147-0.21303 0.1147-0.78656 0.1147-0.57352 0-0.81113-0.1147-0.22941-0.1229-0.22941-0.40147v-1.3437q0-0.28676 0.21303-0.40147 0.21302-0.11471 0.78655-0.11471z"/><path d="m55.143 117.3q1.4539 0 2.2325 0.64081 0.77862 0.64081 0.77862 1.8604 0 1.5917-1.7088 2.0051 0.37208 0.1447 0.59258 0.4272 0.1447 0.18605 0.26184 0.39276 0.12403 0.19982 0.28251 0.50989 0.16537 0.33074 0.25495 0.47544 0.13781 0.22738 0.27562 0.34452 0.13781 0.11025 0.31007 0.11025h0.13092q0.16537 0 0.25495 0.062 0.08957 0.0551 0.13092 0.20672 0.04823 0.15159 0.04823 0.44098 0 0.2894-0.04823 0.44099-0.04134 0.15159-0.13092 0.20671-0.08958 0.0551-0.25495 0.0551h-0.66837q-0.54434 0-0.88198-0.2205-0.33763-0.22049-0.62014-0.73727-0.13781-0.24117-0.33074-0.66148-0.13781-0.31696-0.26184-0.54435-0.12403-0.23427-0.27562-0.45477-0.2136-0.29628-0.47544-0.4272t-0.62703-0.13092h-0.44099v1.764h0.66837q0.16537 0 0.25495 0.062 0.08957 0.0551 0.13092 0.20672 0.04823 0.15159 0.04823 0.44098 0 0.2894-0.04823 0.44099-0.04134 0.15159-0.13092 0.20671-0.08958 0.0551-0.25495 0.0551h-3.1283q-0.16537 0-0.25495-0.0551-0.08958-0.0551-0.13781-0.20671-0.04134-0.15159-0.04134-0.44099 0-0.28939 0.04134-0.44098 0.04823-0.15159 0.13781-0.20672 0.08958-0.062 0.25495-0.062h0.73728v-5.3539h-0.73728q-0.16537 0-0.25495-0.0551-0.08958-0.0551-0.13781-0.20671-0.04134-0.15159-0.04134-0.44099t0.04134-0.44099q0.04823-0.15159 0.13781-0.20671 0.08958-0.062 0.25495-0.062zm-1.1714 3.521h1.0267q0.70282 0 1.0405-0.24806 0.33763-0.25494 0.33763-0.77173 0-0.51678-0.33763-0.76483-0.33763-0.25495-1.0405-0.25495h-1.0267zm12.484-1.8604q1.5159 0 2.1912 0.65459t0.67526 1.8742v1.9913q0 0.27562 0.11714 0.4341 0.11714 0.15159 0.33763 0.15159h0.2136q0.16537 0 0.25494 0.062 0.08958 0.0551 0.13092 0.20672 0.04823 0.15159 0.04823 0.44098 0 0.2894-0.04823 0.44099-0.04134 0.15159-0.13092 0.20671-0.08958 0.0551-0.25494 0.0551h-0.77173q-0.42721 0-0.75795-0.17226-0.32385-0.17915-0.49611-0.55813-0.54434 0.42032-1.1507 0.65459-0.60636 0.22739-1.2472 0.22739-0.77862 0-1.3436-0.26184-0.56502-0.26873-0.86819-0.75795-0.29629-0.49611-0.29629-1.1645 0-0.96466 0.68215-1.4952 0.68215-0.53057 1.9086-0.53057 0.91643 0 1.95 0.20672v-0.19983q0-0.46165-0.2894-0.68215-0.2894-0.22049-1.0198-0.22049-0.40654 0-0.90954 0.10335-0.49611 0.0965-0.98533 0.26184-0.11714 0.0345-0.19982 0.0345-0.17226 0-0.31007-0.12402-0.13092-0.13092-0.24116-0.4341-0.10336-0.30318-0.10336-0.49611 0-0.35141 0.31696-0.46855 0.61325-0.2205 1.3023-0.33074 0.68904-0.11025 1.2954-0.11025zm-0.63392 3.8793q-0.48233 0-0.73728 0.17226-0.24806 0.17226-0.24806 0.503 0 0.32385 0.24116 0.49612 0.24806 0.16537 0.70971 0.16537 0.47544 0 0.9371-0.18605 0.46855-0.19293 0.87508-0.52367v-0.44099q-0.90954-0.18604-1.7777-0.18604zm15.867-3.7277q0.16537 0 0.25495 0.062 0.08958 0.0551 0.13092 0.20672 0.04823 0.15159 0.04823 0.44098 0 0.2894-0.04823 0.44099-0.04134 0.15159-0.13092 0.20671-0.08957 0.0551-0.25495 0.0551h-0.44099l-2.639 5.347q-0.48233 0.97155-0.92332 1.4746-0.4341 0.5099-0.99911 0.71661-0.55812 0.2136-1.447 0.24116-0.24806 7e-3 -0.37897-0.18604-0.12403-0.19293-0.12403-0.70282 0-0.35141 0.08958-0.503 0.09647-0.15159 0.26873-0.16537 0.54434-0.0345 0.88198-0.20672 0.34452-0.17226 0.62014-0.55123 0.28251-0.37208 0.67526-1.13l-2.1085-4.3341h-0.51679q-0.16537 0-0.25495-0.0551-0.08957-0.0551-0.13781-0.20671-0.04134-0.15159-0.04134-0.44099 0-0.28939 0.04134-0.44098 0.04823-0.15159 0.13781-0.20672 0.08958-0.062 0.25495-0.062h2.7837q0.16537 0 0.25495 0.062 0.08957 0.0551 0.13092 0.20672 0.04823 0.15159 0.04823 0.44098 0 0.2894-0.04823 0.44099-0.04134 0.15159-0.13092 0.20671-0.08958 0.0551-0.25495 0.0551h-0.41343l1.1989 2.6184 1.1989-2.6184h-0.37208q-0.16537 0-0.25494-0.0551-0.08958-0.0551-0.13781-0.20671-0.04134-0.15159-0.04134-0.44099 0-0.28939 0.04134-0.44098 0.04823-0.15159 0.13781-0.20672 0.08957-0.062 0.25494-0.062zm10.541-0.15159q0.63392 0 0.99911 0.51678 0.36519 0.51679 0.36519 1.571v3.9964q0 0.23427-0.10336 0.33763-0.09647 0.0965-0.33074 0.0965h-0.85441q-0.23428 0-0.33763-0.0965-0.09647-0.10336-0.09647-0.33763v-3.6037q0-0.3652-0.08958-0.53746-0.08269-0.17226-0.26873-0.17226-0.32385 0-0.51678 0.503-0.18604 0.503-0.18604 1.4677v2.3428q0 0.23427-0.10336 0.33763-0.09647 0.0965-0.33074 0.0965h-0.85441q-0.23427 0-0.33763-0.0965-0.09647-0.10336-0.09647-0.33763v-3.6037q0-0.3652-0.08958-0.53746-0.08269-0.17226-0.26873-0.17226-0.32385 0-0.51678 0.503-0.18604 0.503-0.18604 1.4677v2.3428q0 0.23427-0.10336 0.33763-0.09647 0.0965-0.33074 0.0965h-0.85441q-0.23428 0-0.33763-0.0965-0.09647-0.10336-0.09647-0.33763v-4.5201h-0.39276q-0.16537 0-0.25495-0.0551-0.08957-0.0551-0.13092-0.20671-0.04823-0.15159-0.04823-0.44099 0-0.28939 0.04823-0.44098 0.04134-0.15159 0.13092-0.20672 0.08958-0.062 0.25495-0.062h1.1989q0.23428 0 0.33074 0.10336 0.10336 0.0965 0.10336 0.33074v0.99222q0.32385-0.77862 0.75795-1.1783 0.44099-0.39965 0.96466-0.39965 1.0198 0 1.3161 1.3988 0.31696-0.68905 0.73728-1.0405 0.42032-0.3583 0.90954-0.3583zm9.2111 0q1.0473 0 1.8328 0.42721 0.78551 0.4272 1.2058 1.1852 0.4272 0.75795 0.4272 1.7226t-0.4272 1.7226q-0.42032 0.75794-1.2058 1.1852t-1.8328 0.42721q-1.0474 0-1.8329-0.42721-0.78551-0.42721-1.2127-1.1852-0.42032-0.75795-0.42032-1.7226t0.42032-1.7226q0.42721-0.75795 1.2127-1.1852 0.78551-0.42721 1.8329-0.42721zm0 1.5641q-0.49611 0-0.86131 0.22049-0.36519 0.21361-0.56501 0.61325-0.19294 0.39965-0.19294 0.9371t0.19294 0.9371q0.19982 0.39964 0.56501 0.62014 0.3652 0.2136 0.86131 0.2136t0.8613-0.2136q0.36519-0.2205 0.55812-0.62014 0.19983-0.39965 0.19983-0.9371t-0.19983-0.9371q-0.19293-0.39964-0.55812-0.61325-0.36519-0.22049-0.8613-0.22049zm12.622-1.5641q0.62703 0 1.0956 0.27562 0.47544 0.27561 0.73039 0.78551 0.25494 0.503 0.25494 1.1852v2.8595h0.53057q0.16537 0 0.25494 0.062 0.0896 0.0551 0.13092 0.20672 0.0482 0.15159 0.0482 0.44098 0 0.2894-0.0482 0.44099-0.0413 0.15159-0.13092 0.20671-0.0896 0.0551-0.25494 0.0551h-2.577q-0.16537 0-0.25495-0.0551-0.0896-0.0551-0.13781-0.20671-0.0413-0.15159-0.0413-0.44099 0-0.28939 0.0413-0.44098 0.0482-0.15159 0.13781-0.20672 0.0896-0.062 0.25495-0.062h0.32385v-2.453q0-0.53746-0.18604-0.81307-0.18605-0.27562-0.62014-0.27562-0.39965 0-0.75795 0.33763-0.3583 0.33074-0.5788 0.88886-0.2136 0.55813-0.2136 1.192v1.1231h0.32385q0.16537 0 0.25495 0.062 0.0896 0.0551 0.13091 0.20672 0.0482 0.15159 0.0482 0.44098 0 0.2894-0.0482 0.44099-0.0413 0.15159-0.13091 0.20671-0.0896 0.0551-0.25495 0.0551h-2.577q-0.16537 0-0.25495-0.0551-0.0896-0.0551-0.13781-0.20671-0.0413-0.15159-0.0413-0.44099 0-0.28939 0.0413-0.44098 0.0482-0.15159 0.13781-0.20672 0.0896-0.062 0.25495-0.062h0.53056v-3.5417h-0.66837q-0.16537 0-0.25495-0.0551-0.0896-0.0551-0.1378-0.20671-0.0413-0.15159-0.0413-0.44099 0-0.28939 0.0413-0.44098 0.0482-0.15159 0.1378-0.20672 0.0896-0.062 0.25495-0.062h1.6813q0.23427 0 0.33074 0.10336 0.10335 0.0965 0.10335 0.33074v0.99911q0.90954-1.5848 2.2738-1.5848zm13.159-2.5219q0.23427 0 0.33074 0.10336 0.10336 0.0965 0.10336 0.33074v7.1936h0.59946q0.16538 0 0.25495 0.0551 0.0896 0.0551 0.13092 0.20672 0.0482 0.15158 0.0482 0.44098t-0.0482 0.44099q-0.0413 0.15159-0.13092 0.2136-0.0896 0.0551-0.25495 0.0551h-1.6124q-0.23427 0-0.33763-0.0965-0.0965-0.10336-0.0965-0.33763v-0.5788q-0.35831 0.55124-0.89576 0.86131-0.53745 0.30318-1.192 0.30318-0.90265 0-1.5779-0.44099t-1.0336-1.1989q-0.3583-0.75794-0.3583-1.695t0.3583-1.695q0.35831-0.75794 1.0336-1.1989t1.5779-0.44099q0.53745 0 0.99911 0.2136 0.46166 0.20672 0.81307 0.59947v-1.9224h-1.0129q-0.16537 0-0.25495-0.0551-0.0896-0.0551-0.13781-0.20671-0.0413-0.15159-0.0413-0.44099t0.0413-0.44099q0.0482-0.15159 0.13781-0.20671 0.0896-0.062 0.25495-0.062zm-2.8251 4.086q-0.4272 0-0.74416 0.22049-0.31696 0.21361-0.48922 0.61325-0.16537 0.39965-0.16537 0.9371t0.16537 0.9371q0.17226 0.39964 0.48922 0.62014 0.31696 0.2136 0.74416 0.2136 0.44099 0 0.79929-0.20671 0.35831-0.20672 0.57191-0.60636 0.2136-0.40654 0.2136-0.95777 0-0.55124-0.2136-0.95088-0.2136-0.40654-0.57191-0.61325-0.3583-0.20671-0.79929-0.20671z" display="inline"/></g></g></svg>
