<svg version="1.1" viewBox="0 0 10.225 11.642" xmlns="http://www.w3.org/2000/svg" class="icon-arrow-left"><path d="m6.024 0.041016a0.52922 0.52922 0 0 1 0.32617 0.48828v3.4805a0.52917 0.52917 0 0 1-0.5293 0.5293 0.52917 0.52917 0 0 1-0.5293-0.5293v-2.2031l-4.0137 4.0137 4.0137 4.0137v-2.1211a0.52922 0.52922 0 0 1 0-0.015625s-0.055004-1.2315 0.87695-1.9082c0.42561-0.30906 0.91239-0.4061 1.3008-0.45703 0.37974-0.049802 0.67012-0.041425 0.68359-0.041016h1.543a0.52917 0.52917 0 0 1 0.5293 0.5293 0.52917 0.52917 0 0 1-0.5293 0.5293h-1.543a0.52922 0.52922 0 0 1-0.017578 0s-0.22897-0.00618-0.5293 0.033203c-0.30033 0.039387-0.64918 0.14028-0.81641 0.26172-0.32764 0.23792-0.43945 1.082-0.43945 1.082v3.3867a0.52922 0.52922 0 0 1-0.90234 0.37305l-5.293-5.291a0.52922 0.52922 0 0 1 0-0.74805l5.293-5.293a0.52922 0.52922 0 0 1 0.57617-0.11328z"/></svg>
