<svg version="1.1" viewBox="0 0 209.34 210.53" xml:space="preserve" xmlns="http://www.w3.org/2000/svg"><g transform="translate(-.023026 -22.999)" stroke-linecap="round" stroke-linejoin="round" stroke-miterlimit="2.8"><g transform="translate(-1.9684 .71932)"><path d="m108.85 187.18s82.947-61.656 81.077-58.101m-82.119 50.241s84.006-62.714 82.135-59.159m0.5137-12.722v31.431l-81.884 56.744-1.1565-27.056 83.041-61.119" fill="none" stroke="#4b4b4b" stroke-width="4.7625"/><path d="m20.229 116.17v28.437l88.527 52.687 84.343-60.545m-172.87-20.58 92.048-58.372 80.822 47.521-85.687 63.236z" fill="none" stroke="#4b4b4b" stroke-width="7.9375"/><path transform="matrix(.61638 .61224 -.92771 .70089 0 0)" d="m169.62-22.891q1.1114 0 1.556 0.69859 0.44456 0.66684 0.44456 2.6356 0 1.4607-0.19053 2.191-0.19052 0.73034-0.63508 0.98438-0.4128 0.25403-1.1749 0.25403-3.1119 0-4.8266 0.69859-1.683 0.66684-2.318 2.1275-0.60332 1.4289-0.47631 3.9058l0.15877 3.0801 0.0318 0.82561q0 3.3342-1.7147 5.5252-1.7148 2.1593-5.6205 3.2707v0.31754q3.9058 1.0796 5.6522 3.2707 1.7782 2.191 1.7782 5.43 0 0.63508-0.0318 0.95262l-0.28579 4.1598q-0.0317 0.38105-0.0317 1.1431 0 2.1275 0.73034 3.3977t2.4133 1.8735q1.683 0.63508 4.5408 0.63508 0.7621 0 1.1749 0.22228 0.44456 0.25403 0.63508 0.98438 0.19053 0.73034 0.19053 2.191 0 1.9688-0.44456 2.6673-0.44456 0.69859-1.556 0.69859-7.9703 0-11.813-2.8261-3.8422-2.7944-3.8422-8.7006 0-0.92087 0.0953-1.9052l0.4128-4.5408q0.0318-0.25403 0.0318-0.7621 0-2.6991-1.9052-4.1598-1.8735-1.4924-5.43-1.4924-0.7621 0-1.1749-0.25403-0.41281-0.28579-0.63509-1.0161-0.19052-0.73034-0.19052-2.1275t0.19052-2.0958q0.22228-0.73034 0.63509-0.98438 0.4128-0.28579 1.1749-0.28579 3.5565 0 5.3664-1.4607 1.8417-1.4607 1.8417-4.1598 0-0.50807-0.0318-0.79385l-0.31754-3.4612q-0.0953-0.95262-0.0953-1.8417 0-5.7475 3.8422-8.5101 3.8422-2.7626 11.844-2.7626zm19.435 0q8.002 0 11.844 2.7626 3.8422 2.7626 3.8422 8.5101 0 0.88912-0.0953 1.8417l-0.31754 3.4612q-0.0317 0.28579-0.0317 0.79385 0 2.6991 1.81 4.1598 1.8417 1.4607 5.3982 1.4607 0.7621 0 1.1749 0.28579 0.4128 0.25403 0.60333 0.98438 0.22228 0.69859 0.22228 2.0958t-0.22228 2.1275q-0.19053 0.73034-0.60333 1.0161-0.4128 0.25403-1.1749 0.25403-3.5565 0-5.4617 1.4924-1.8735 1.4607-1.8735 4.1598 0 0.50807 0.0317 0.7621l0.41281 4.5408q0.0953 0.98438 0.0953 1.9052 0 5.9063-3.8422 8.7006-3.8422 2.8261-11.813 2.8261-1.1114 0-1.556-0.69859-0.44456-0.69859-0.44456-2.6673 0-1.4607 0.19052-2.191 0.19053-0.73034 0.60333-0.98438 0.44456-0.22228 1.2067-0.22228 2.8579 0 4.5408-0.63508 1.683-0.60333 2.4133-1.8735 0.73034-1.2702 0.73034-3.3977 0-0.7621-0.0317-1.1431l-0.28579-4.1598q-0.0318-0.31754-0.0318-0.95262 0-3.2389 1.7465-5.43 1.7782-2.191 5.684-3.2707v-0.31754q-4.1598-1.1749-5.8428-3.5565-1.6512-2.3816-1.4607-6.065l0.15877-3.0801q0.0318-0.31754 0.0318-0.88911 0-2.1275-0.73035-3.3659-0.69859-1.2702-2.3498-1.8735-1.6512-0.60333-4.5726-0.60333-0.7621 0-1.2067-0.25403-0.4128-0.25403-0.60333-0.98438-0.19052-0.73034-0.19052-2.191 0-1.9688 0.44456-2.6356 0.44455-0.69859 1.556-0.69859z" fill="#4b4b4b" stroke-width="4.3897" aria-label="{}"/></g></g></svg>