<svg version="1.1" viewBox="0 0 209.34 210.53" xml:space="preserve" xmlns="http://www.w3.org/2000/svg"><g transform="translate(-.023026 -22.999)" stroke-linecap="round" stroke-linejoin="round" stroke-miterlimit="2.8"><g transform="translate(.095614 .06127)"><path transform="translate(-.095614 -.06127)" d="m94.248 98.956q1.2058 0 1.6881 0.75792 0.48231 0.72347 0.48231 2.8594 0 1.5848-0.20671 2.3771t-0.68902 1.068q-0.44786 0.27561-1.2747 0.27561-3.3762 0-5.2365 0.75792-1.8259 0.72347-2.5149 2.3082-0.65457 1.5503-0.51676 4.2375l0.17226 3.3418 0.03445 0.89572q0 3.6174-1.8604 5.9945-1.8604 2.3427-6.0978 3.5484v0.34451q4.2375 1.1713 6.1323 3.5485 1.9293 2.3771 1.9293 5.8911 0 0.68902-0.03445 1.0335l-0.31006 4.5131q-0.03445 0.41341-0.03445 1.2402 0 2.3082 0.79237 3.6862t2.6183 2.0326q1.8259 0.68902 4.9265 0.68902 0.82682 0 1.2747 0.24115 0.48231 0.27561 0.68902 1.068 0.20671 0.79238 0.20671 2.3771 0 2.136-0.48231 2.8939-0.48231 0.75793-1.6881 0.75793-8.6472 0-12.816-3.0661-4.1686-3.0317-4.1686-9.4396 0-0.99908 0.10335-2.0671l0.44786-4.9265q0.03445-0.27561 0.03445-0.82682 0-2.9283-2.0671-4.5131-2.0326-1.6192-5.8911-1.6192-0.82682 0-1.2747-0.2756-0.44786-0.31006-0.68902-1.1024-0.20671-0.79238-0.20671-2.3082t0.20671-2.2738q0.24116-0.79238 0.68902-1.068 0.44786-0.31005 1.2747-0.31005 3.8585 0 5.8222-1.5848 1.9982-1.5847 1.9982-4.5131 0-0.55121-0.03445-0.86127l-0.34451-3.7552q-0.10335-1.0335-0.10335-1.9982 0-6.2356 4.1686-9.2329 4.1686-2.9972 12.85-2.9972zm21.085 0q8.6816 0 12.85 2.9972 4.1686 2.9972 4.1686 9.2329 0 0.96462-0.10336 1.9982l-0.34451 3.7552q-0.0345 0.31006-0.0345 0.86127 0 2.9283 1.9637 4.5131 1.9982 1.5848 5.8567 1.5848 0.82683 0 1.2747 0.31005 0.44786 0.27561 0.65457 1.068 0.24116 0.75792 0.24116 2.2738t-0.24116 2.3082q-0.20671 0.79237-0.65457 1.1024-0.44786 0.2756-1.2747 0.2756-3.8585 0-5.9256 1.6192-2.0326 1.5848-2.0326 4.5131 0 0.55121 0.0345 0.82682l0.44786 4.9265q0.10335 1.068 0.10335 2.0671 0 6.4079-4.1686 9.4396-4.1686 3.0661-12.816 3.0661-1.2058 0-1.6881-0.75793-0.48231-0.75792-0.48231-2.8939 0-1.5847 0.20671-2.3771 0.2067-0.79237 0.65456-1.068 0.48232-0.24115 1.3091-0.24115 3.1006 0 4.9265-0.68902 1.8259-0.65457 2.6183-2.0326 0.79237-1.378 0.79237-3.6862 0-0.82683-0.0345-1.2402l-0.31006-4.5131q-0.0345-0.34451-0.0345-1.0335 0-3.514 1.8948-5.8911 1.9293-2.3771 6.1667-3.5485v-0.34451q-4.5131-1.2747-6.339-3.8585-1.7914-2.5838-1.5848-6.5801l0.17226-3.3418q0.0344-0.34451 0.0344-0.96462 0-2.3082-0.79237-3.6518-0.75793-1.378-2.5494-2.0326-1.7914-0.65456-4.9609-0.65456-0.82682 0-1.3091-0.27561-0.44786-0.27561-0.65456-1.068-0.20671-0.79237-0.20671-2.3771 0-2.136 0.48231-2.8594 0.48232-0.75792 1.6881-0.75792z" fill="#4b4b4b" stroke-width="4.7625" aria-label="{}"/><path d="m70.568 68.739h68.593l34.164 59.366-34.363 59.3h-69.089l-34.495-59.465z" fill="none" stroke="#4b4b4b" stroke-width="4.7625"/><path d="m146.54 53.954 43.458 74.216-43.458 74.282h-85.328l-42.003-74.149 42.664-74.282z" fill="none" stroke="#4b4b4b" stroke-width="7.9375"/></g></g></svg>