<svg version="1.1" viewBox="0 0 209.34 210.53" xml:space="preserve" xmlns="http://www.w3.org/2000/svg"><g transform="translate(-.023026 -22.999)" stroke-linecap="round" stroke-linejoin="round" stroke-miterlimit="2.8"><g fill="none" stroke="#4b4b4b"><path transform="rotate(35.944 106.62 123.27)" d="m92.984 135.16h-34.028m52.319 0h32.146m-41.639-15.289-0.58987-44.21" stroke-width="4.4834"/><path transform="rotate(35.944 106.62 123.27)" d="m75.927 211.29 50.989-0.0861a18.633 18.633 134.87 0 0 18.601-18.685l-0.16577-59.106c0-58.746-44.159-57.744-44.159-57.744s-44.045-0.78777-44.045 58.775l0.09553 58.224a18.652 18.652 44.905 0 0 18.684 18.622z" stroke-width="7.9375"/><path transform="rotate(35.944 106.62 123.27)" d="m103.05 150.71a7.4296 15.529 0 0 1-8.5864-12.638 7.4296 15.529 0 0 1 6.0375-17.96 7.4296 15.529 0 0 1 8.5988 12.601 7.4296 15.529 0 0 1-6.0199 17.986" stroke-width="4.4834"/><path transform="translate(34.059 -67.867)" d="m95.538 145.77v-7.0038a8.9977 8.9977 135.44 0 1 9.1347-8.9967l33.853 0.51553a8.9977 8.9977 135.44 0 0 9.1347-8.9967v-0.24923a9.1358 9.1358 45 0 0-9.1358-9.1358h-167.75" stroke-width="7.9375"/></g></g></svg>